G04*
G04 #@! TF.GenerationSoftware,Altium Limited,Altium Designer,20.0.2 (26)*
G04*
G04 Layer_Color=8421504*
%FSLAX24Y24*%
%MOIN*%
G70*
G01*
G75*
%ADD18R,0.0315X0.0299*%
%ADD19C,0.0157*%
%ADD20R,0.0299X0.0315*%
%ADD21R,0.0787X0.0866*%
%ADD22R,0.0394X0.0394*%
%ADD23R,0.0236X0.0551*%
%ADD24R,0.0472X0.0551*%
%ADD25O,0.0787X0.0197*%
%ADD26R,0.0197X0.0433*%
%ADD27R,0.0157X0.0433*%
%ADD28O,0.0110X0.0709*%
%ADD29R,0.0394X0.0551*%
D18*
X8575Y10781D02*
D03*
Y11379D02*
D03*
X7830Y10781D02*
D03*
Y11379D02*
D03*
X24220Y9561D02*
D03*
Y10159D02*
D03*
X4260Y15951D02*
D03*
Y16549D02*
D03*
X3720Y15951D02*
D03*
Y16549D02*
D03*
X8850Y3779D02*
D03*
Y3181D02*
D03*
X7860Y8931D02*
D03*
Y9529D02*
D03*
X8560Y8931D02*
D03*
Y9529D02*
D03*
X16010Y7138D02*
D03*
Y6540D02*
D03*
X18080Y6521D02*
D03*
Y7119D02*
D03*
X18900Y6521D02*
D03*
Y7119D02*
D03*
X20990Y6521D02*
D03*
Y7119D02*
D03*
X11180Y3201D02*
D03*
Y3799D02*
D03*
X6190Y6799D02*
D03*
Y6201D02*
D03*
X8580Y12689D02*
D03*
Y12091D02*
D03*
D19*
X22739Y14284D02*
D03*
X22424D02*
D03*
X22109D02*
D03*
X21794D02*
D03*
X21479D02*
D03*
X21164D02*
D03*
X20850D02*
D03*
X20535D02*
D03*
X20220D02*
D03*
X19905D02*
D03*
X19590D02*
D03*
X19275D02*
D03*
X18960D02*
D03*
X18645D02*
D03*
X23054Y13970D02*
D03*
X22739D02*
D03*
X22424D02*
D03*
X22109D02*
D03*
X21794D02*
D03*
X21479D02*
D03*
X21164D02*
D03*
X20850D02*
D03*
X20535D02*
D03*
X20220D02*
D03*
X19905D02*
D03*
X19590D02*
D03*
X19275D02*
D03*
X18960D02*
D03*
X18645D02*
D03*
X18330D02*
D03*
X23369Y13655D02*
D03*
X23054D02*
D03*
X22739D02*
D03*
X22424D02*
D03*
X22109D02*
D03*
X21794D02*
D03*
X21479D02*
D03*
X21164D02*
D03*
X20850D02*
D03*
X20535D02*
D03*
X20220D02*
D03*
X19905D02*
D03*
X19590D02*
D03*
X19275D02*
D03*
X18960D02*
D03*
X18645D02*
D03*
X18330D02*
D03*
X18015D02*
D03*
X23369Y13340D02*
D03*
X23054D02*
D03*
X22739D02*
D03*
X22424D02*
D03*
X22109D02*
D03*
X21794D02*
D03*
X21479D02*
D03*
X21164D02*
D03*
X20850D02*
D03*
X20535D02*
D03*
X20220D02*
D03*
X19905D02*
D03*
X19590D02*
D03*
X19275D02*
D03*
X18960D02*
D03*
X18645D02*
D03*
X18330D02*
D03*
X18015D02*
D03*
X23369Y13025D02*
D03*
X23054D02*
D03*
X22739D02*
D03*
X22424D02*
D03*
X22109D02*
D03*
X21794D02*
D03*
X21479D02*
D03*
X21164D02*
D03*
X20850D02*
D03*
X20535D02*
D03*
X20220D02*
D03*
X19905D02*
D03*
X19590D02*
D03*
X19275D02*
D03*
X18960D02*
D03*
X18645D02*
D03*
X18330D02*
D03*
X18015D02*
D03*
X23369Y12710D02*
D03*
X23054D02*
D03*
X22739D02*
D03*
X22424D02*
D03*
X22109D02*
D03*
X21794D02*
D03*
X21479D02*
D03*
X21164D02*
D03*
X20850D02*
D03*
X20535D02*
D03*
X20220D02*
D03*
X19905D02*
D03*
X19590D02*
D03*
X19275D02*
D03*
X18960D02*
D03*
X18645D02*
D03*
X18330D02*
D03*
X18015D02*
D03*
X23369Y12395D02*
D03*
X23054D02*
D03*
X22739D02*
D03*
X22424D02*
D03*
X22109D02*
D03*
X21794D02*
D03*
X21479D02*
D03*
X21164D02*
D03*
X20850D02*
D03*
X20535D02*
D03*
X20220D02*
D03*
X19905D02*
D03*
X19590D02*
D03*
X19275D02*
D03*
X18960D02*
D03*
X18645D02*
D03*
X18330D02*
D03*
X18015D02*
D03*
X23369Y12080D02*
D03*
X23054D02*
D03*
X22739D02*
D03*
X22424D02*
D03*
X22109D02*
D03*
X21794D02*
D03*
X21479D02*
D03*
X19905D02*
D03*
X19590D02*
D03*
X19275D02*
D03*
X18960D02*
D03*
X18645D02*
D03*
X18330D02*
D03*
X18015D02*
D03*
X23369Y11765D02*
D03*
X23054D02*
D03*
X22739D02*
D03*
X22424D02*
D03*
X22109D02*
D03*
X21794D02*
D03*
X21479D02*
D03*
X19905D02*
D03*
X19590D02*
D03*
X19275D02*
D03*
X18960D02*
D03*
X18645D02*
D03*
X18330D02*
D03*
X18015D02*
D03*
X23369Y11450D02*
D03*
X23054D02*
D03*
X22739D02*
D03*
X22424D02*
D03*
X22109D02*
D03*
X21794D02*
D03*
X21479D02*
D03*
X19905D02*
D03*
X19590D02*
D03*
X19275D02*
D03*
X18960D02*
D03*
X18645D02*
D03*
X18330D02*
D03*
X18015D02*
D03*
X23369Y11135D02*
D03*
X23054D02*
D03*
X22739D02*
D03*
X22424D02*
D03*
X22109D02*
D03*
X21794D02*
D03*
X21479D02*
D03*
X19905D02*
D03*
X19590D02*
D03*
X19275D02*
D03*
X18960D02*
D03*
X18645D02*
D03*
X18330D02*
D03*
X18015D02*
D03*
X23369Y10820D02*
D03*
X23054D02*
D03*
X22739D02*
D03*
X22424D02*
D03*
X22109D02*
D03*
X21794D02*
D03*
X21479D02*
D03*
X21164D02*
D03*
X20850D02*
D03*
X20535D02*
D03*
X20220D02*
D03*
X19905D02*
D03*
X19590D02*
D03*
X19275D02*
D03*
X18960D02*
D03*
X18645D02*
D03*
X18330D02*
D03*
X18015D02*
D03*
X23369Y10505D02*
D03*
X23054D02*
D03*
X22739D02*
D03*
X22424D02*
D03*
X22109D02*
D03*
X21794D02*
D03*
X21479D02*
D03*
X21164D02*
D03*
X20850D02*
D03*
X20535D02*
D03*
X20220D02*
D03*
X19905D02*
D03*
X19590D02*
D03*
X19275D02*
D03*
X18960D02*
D03*
X18645D02*
D03*
X18330D02*
D03*
X18015D02*
D03*
X23369Y10190D02*
D03*
X23054D02*
D03*
X22739D02*
D03*
X22424D02*
D03*
X22109D02*
D03*
X21794D02*
D03*
X21479D02*
D03*
X21164D02*
D03*
X20850D02*
D03*
X20535D02*
D03*
X20220D02*
D03*
X19905D02*
D03*
X19590D02*
D03*
X19275D02*
D03*
X18960D02*
D03*
X18645D02*
D03*
X18330D02*
D03*
X18015D02*
D03*
X23369Y9875D02*
D03*
X23054D02*
D03*
X22739D02*
D03*
X22424D02*
D03*
X22109D02*
D03*
X21794D02*
D03*
X21479D02*
D03*
X21164D02*
D03*
X20850D02*
D03*
X20535D02*
D03*
X20220D02*
D03*
X19905D02*
D03*
X19590D02*
D03*
X19275D02*
D03*
X18960D02*
D03*
X18645D02*
D03*
X18330D02*
D03*
X18015D02*
D03*
X23369Y9560D02*
D03*
X23054D02*
D03*
X22739D02*
D03*
X22424D02*
D03*
X22109D02*
D03*
X21794D02*
D03*
X21479D02*
D03*
X21164D02*
D03*
X20850D02*
D03*
X20535D02*
D03*
X20220D02*
D03*
X19905D02*
D03*
X19590D02*
D03*
X19275D02*
D03*
X18960D02*
D03*
X18645D02*
D03*
X18330D02*
D03*
X18015D02*
D03*
X23054Y9245D02*
D03*
X22739D02*
D03*
X22424D02*
D03*
X22109D02*
D03*
X21794D02*
D03*
X21479D02*
D03*
X21164D02*
D03*
X20850D02*
D03*
X20535D02*
D03*
X20220D02*
D03*
X19905D02*
D03*
X19590D02*
D03*
X19275D02*
D03*
X18960D02*
D03*
X18645D02*
D03*
X18330D02*
D03*
X22739Y8930D02*
D03*
X22424D02*
D03*
X22109D02*
D03*
X21794D02*
D03*
X21479D02*
D03*
X21164D02*
D03*
X20850D02*
D03*
X20535D02*
D03*
X20220D02*
D03*
X19905D02*
D03*
X19590D02*
D03*
X19275D02*
D03*
X18960D02*
D03*
X18645D02*
D03*
D20*
X25350Y14010D02*
D03*
X25948D02*
D03*
X25350Y13360D02*
D03*
X25948D02*
D03*
X25909Y11420D02*
D03*
X25311D02*
D03*
X27289Y11410D02*
D03*
X26691D02*
D03*
X23891Y8890D02*
D03*
X24489D02*
D03*
X25301Y6330D02*
D03*
X25899D02*
D03*
X4209Y8480D02*
D03*
X3611D02*
D03*
X15351Y11430D02*
D03*
X15949D02*
D03*
X15351Y9850D02*
D03*
X15949D02*
D03*
X15331Y8520D02*
D03*
X15929D02*
D03*
D21*
X25350Y12410D02*
D03*
X26531D02*
D03*
X25300Y7240D02*
D03*
X26481D02*
D03*
X22499Y7330D02*
D03*
X23681D02*
D03*
D22*
X25310Y10016D02*
D03*
Y10804D02*
D03*
D23*
X25306Y8268D02*
D03*
X25680D02*
D03*
X26054D02*
D03*
Y9292D02*
D03*
X25306D02*
D03*
D24*
X17444Y7462D02*
D03*
Y6518D02*
D03*
X16696D02*
D03*
Y7462D02*
D03*
X20364D02*
D03*
Y6518D02*
D03*
X19616D02*
D03*
Y7462D02*
D03*
X9785Y3077D02*
D03*
D25*
X9705Y7336D02*
D03*
Y7650D02*
D03*
Y7965D02*
D03*
Y8280D02*
D03*
Y8595D02*
D03*
Y8910D02*
D03*
Y9225D02*
D03*
Y9540D02*
D03*
Y9855D02*
D03*
Y10170D02*
D03*
Y10485D02*
D03*
Y10800D02*
D03*
Y11115D02*
D03*
Y11430D02*
D03*
Y11745D02*
D03*
Y12060D02*
D03*
Y12375D02*
D03*
Y12690D02*
D03*
Y13005D02*
D03*
Y13320D02*
D03*
Y13635D02*
D03*
Y13950D02*
D03*
Y14265D02*
D03*
Y14580D02*
D03*
Y14895D02*
D03*
Y15210D02*
D03*
Y15524D02*
D03*
X14115D02*
D03*
Y15210D02*
D03*
Y14895D02*
D03*
Y14580D02*
D03*
Y14265D02*
D03*
Y13950D02*
D03*
Y13635D02*
D03*
Y13320D02*
D03*
Y13005D02*
D03*
Y12690D02*
D03*
Y12375D02*
D03*
Y12060D02*
D03*
Y11745D02*
D03*
Y11430D02*
D03*
Y11115D02*
D03*
Y10800D02*
D03*
Y10485D02*
D03*
Y10170D02*
D03*
Y9855D02*
D03*
Y9540D02*
D03*
Y9225D02*
D03*
Y8910D02*
D03*
Y8595D02*
D03*
Y8280D02*
D03*
Y7965D02*
D03*
Y7650D02*
D03*
Y7336D02*
D03*
D26*
X6855Y18511D02*
D03*
X5910D02*
D03*
Y19220D02*
D03*
X6855D02*
D03*
D27*
X6225Y18511D02*
D03*
Y19220D02*
D03*
X6540D02*
D03*
Y18511D02*
D03*
D28*
X6382Y7590D02*
D03*
X6185D02*
D03*
X5989D02*
D03*
X5792D02*
D03*
X5595D02*
D03*
X5398D02*
D03*
X5201D02*
D03*
X5004D02*
D03*
X4807D02*
D03*
X4611D02*
D03*
X4414D02*
D03*
X4217D02*
D03*
X4020D02*
D03*
X3823D02*
D03*
X3626D02*
D03*
X3429D02*
D03*
X3233D02*
D03*
X3036D02*
D03*
X2839D02*
D03*
X2642D02*
D03*
X2445D02*
D03*
X2248D02*
D03*
X2051D02*
D03*
X1855D02*
D03*
Y15228D02*
D03*
X2051D02*
D03*
X2248D02*
D03*
X2445Y15228D02*
D03*
X2642Y15228D02*
D03*
X2839D02*
D03*
X3036D02*
D03*
X3233D02*
D03*
X3429D02*
D03*
X3626D02*
D03*
X3823D02*
D03*
X4020D02*
D03*
X4217D02*
D03*
X4414D02*
D03*
X4611D02*
D03*
X4807D02*
D03*
X5004D02*
D03*
X5201D02*
D03*
X5398D02*
D03*
X5595D02*
D03*
X5792Y15228D02*
D03*
X5989Y15228D02*
D03*
X6185D02*
D03*
X6382D02*
D03*
D29*
X10494Y3077D02*
D03*
Y3943D02*
D03*
X9746D02*
D03*
M02*
