G04*
G04 #@! TF.GenerationSoftware,Altium Limited,Altium Designer,20.0.2 (26)*
G04*
G04 Layer_Physical_Order=2*
G04 Layer_Color=16711680*
%FSLAX24Y24*%
%MOIN*%
G70*
G01*
G75*
%ADD12C,0.0100*%
%ADD16C,0.0010*%
%ADD57C,0.0150*%
%ADD58C,0.0060*%
%ADD59O,0.0512X0.0394*%
%ADD60C,0.0394*%
%ADD61C,0.0600*%
%ADD62R,0.0600X0.0600*%
%ADD63R,0.0600X0.0600*%
%ADD64C,0.0472*%
%ADD65C,0.0197*%
%ADD66C,0.0220*%
G36*
X22050Y0D02*
X0D01*
Y17700D01*
X22050D01*
Y0D01*
D02*
G37*
%LPC*%
G36*
X9350Y17363D02*
X9256Y17351D01*
X9168Y17314D01*
X9093Y17257D01*
X9036Y17182D01*
X8999Y17094D01*
X8987Y17000D01*
X8999Y16906D01*
X9036Y16818D01*
X9093Y16743D01*
X9160Y16692D01*
X9156Y16660D01*
X9147Y16642D01*
X8553D01*
X8544Y16660D01*
X8540Y16692D01*
X8607Y16743D01*
X8664Y16818D01*
X8701Y16906D01*
X8713Y17000D01*
X8701Y17094D01*
X8664Y17182D01*
X8607Y17257D01*
X8532Y17314D01*
X8444Y17351D01*
X8350Y17363D01*
X8256Y17351D01*
X8168Y17314D01*
X8093Y17257D01*
X8036Y17182D01*
X7999Y17094D01*
X7987Y17000D01*
X7999Y16906D01*
X8036Y16818D01*
X8093Y16743D01*
X8160Y16692D01*
X8156Y16660D01*
X8147Y16642D01*
X7553D01*
X7544Y16660D01*
X7540Y16692D01*
X7607Y16743D01*
X7664Y16818D01*
X7701Y16906D01*
X7713Y17000D01*
X7701Y17094D01*
X7664Y17182D01*
X7607Y17257D01*
X7532Y17314D01*
X7444Y17351D01*
X7350Y17363D01*
X7256Y17351D01*
X7168Y17314D01*
X7093Y17257D01*
X7036Y17182D01*
X6999Y17094D01*
X6987Y17000D01*
X6999Y16906D01*
X7036Y16818D01*
X7093Y16743D01*
X7160Y16692D01*
X7156Y16660D01*
X7147Y16642D01*
X6553D01*
X6544Y16660D01*
X6540Y16692D01*
X6607Y16743D01*
X6664Y16818D01*
X6701Y16906D01*
X6713Y17000D01*
X6701Y17094D01*
X6664Y17182D01*
X6607Y17257D01*
X6532Y17314D01*
X6444Y17351D01*
X6350Y17363D01*
X6256Y17351D01*
X6168Y17314D01*
X6093Y17257D01*
X6036Y17182D01*
X5999Y17094D01*
X5987Y17000D01*
X5999Y16906D01*
X6036Y16818D01*
X6093Y16743D01*
X6160Y16692D01*
X6156Y16660D01*
X6147Y16642D01*
X5553D01*
X5544Y16660D01*
X5540Y16692D01*
X5607Y16743D01*
X5664Y16818D01*
X5701Y16906D01*
X5713Y17000D01*
X5701Y17094D01*
X5664Y17182D01*
X5607Y17257D01*
X5532Y17314D01*
X5444Y17351D01*
X5350Y17363D01*
X5256Y17351D01*
X5168Y17314D01*
X5093Y17257D01*
X5036Y17182D01*
X4999Y17094D01*
X4987Y17000D01*
X4999Y16906D01*
X5036Y16818D01*
X5093Y16743D01*
X5160Y16692D01*
X5156Y16660D01*
X5147Y16642D01*
X4553D01*
X4544Y16660D01*
X4540Y16692D01*
X4607Y16743D01*
X4664Y16818D01*
X4701Y16906D01*
X4713Y17000D01*
X4701Y17094D01*
X4664Y17182D01*
X4607Y17257D01*
X4532Y17314D01*
X4444Y17351D01*
X4350Y17363D01*
X4256Y17351D01*
X4168Y17314D01*
X4093Y17257D01*
X4036Y17182D01*
X3999Y17094D01*
X3987Y17000D01*
X3999Y16906D01*
X4036Y16818D01*
X4093Y16743D01*
X4160Y16692D01*
X4156Y16660D01*
X4147Y16642D01*
X3553D01*
X3544Y16660D01*
X3540Y16692D01*
X3607Y16743D01*
X3664Y16818D01*
X3701Y16906D01*
X3713Y17000D01*
X3701Y17094D01*
X3664Y17182D01*
X3607Y17257D01*
X3532Y17314D01*
X3444Y17351D01*
X3350Y17363D01*
X3256Y17351D01*
X3168Y17314D01*
X3093Y17257D01*
X3036Y17182D01*
X2999Y17094D01*
X2987Y17000D01*
X2992Y16958D01*
X2945Y16935D01*
X2815Y17065D01*
X2785Y17085D01*
X2750Y17092D01*
X2701D01*
X2701Y17094D01*
X2664Y17182D01*
X2607Y17257D01*
X2532Y17314D01*
X2444Y17351D01*
X2350Y17363D01*
X2256Y17351D01*
X2168Y17314D01*
X2093Y17257D01*
X2036Y17182D01*
X1999Y17094D01*
X1987Y17000D01*
X1999Y16906D01*
X2036Y16818D01*
X2093Y16743D01*
X2168Y16686D01*
X2256Y16649D01*
X2350Y16637D01*
X2444Y16649D01*
X2532Y16686D01*
X2607Y16743D01*
X2664Y16818D01*
X2684Y16866D01*
X2743Y16877D01*
X3135Y16485D01*
X3165Y16465D01*
X3200Y16458D01*
X9297D01*
X9608Y16147D01*
Y14193D01*
X9577Y14173D01*
X9557Y14142D01*
X9100D01*
X9065Y14135D01*
X9035Y14115D01*
X8685Y13765D01*
X8665Y13735D01*
X8658Y13700D01*
Y11293D01*
X8627Y11273D01*
X8590Y11216D01*
X8577Y11150D01*
X8590Y11084D01*
X8627Y11027D01*
X8684Y10990D01*
X8750Y10977D01*
X8758Y10978D01*
X8783Y10932D01*
X8492Y10642D01*
X8007D01*
X7986Y10673D01*
X7930Y10710D01*
X7864Y10723D01*
X7797Y10710D01*
X7741Y10673D01*
X7703Y10616D01*
X7690Y10550D01*
X7703Y10484D01*
X7741Y10427D01*
X7797Y10390D01*
X7864Y10377D01*
X7930Y10390D01*
X7986Y10427D01*
X8007Y10458D01*
X8413D01*
X8432Y10412D01*
X8223Y10202D01*
X8093D01*
X8073Y10233D01*
X8016Y10271D01*
X7950Y10284D01*
X7884Y10271D01*
X7827Y10233D01*
X7790Y10177D01*
X7777Y10111D01*
X7790Y10044D01*
X7827Y9988D01*
X7884Y9951D01*
X7950Y9937D01*
X8016Y9951D01*
X8073Y9988D01*
X8093Y10019D01*
X8261D01*
X8296Y10026D01*
X8326Y10046D01*
X12788Y14508D01*
X12957D01*
X12977Y14477D01*
X13034Y14440D01*
X13100Y14427D01*
X13166Y14440D01*
X13223Y14477D01*
X13260Y14534D01*
X13273Y14600D01*
X13264Y14647D01*
X13265Y14649D01*
X13301Y14685D01*
X13303Y14686D01*
X13350Y14677D01*
X13416Y14690D01*
X13473Y14727D01*
X13510Y14784D01*
X13523Y14850D01*
X13510Y14916D01*
X13473Y14973D01*
X13416Y15010D01*
X13350Y15023D01*
X13284Y15010D01*
X13227Y14973D01*
X13207Y14942D01*
X12830D01*
X12795Y14935D01*
X12765Y14915D01*
X8968Y11117D01*
X8922Y11142D01*
X8923Y11150D01*
X8910Y11216D01*
X8873Y11273D01*
X8842Y11293D01*
Y13662D01*
X9138Y13958D01*
X9557D01*
X9577Y13927D01*
X9634Y13890D01*
X9700Y13877D01*
X9766Y13890D01*
X9823Y13927D01*
X9860Y13984D01*
X9873Y14050D01*
X9860Y14116D01*
X9823Y14173D01*
X9792Y14193D01*
Y16185D01*
X9785Y16220D01*
X9765Y16250D01*
X9419Y16596D01*
X9437Y16648D01*
X9444Y16649D01*
X9532Y16686D01*
X9607Y16743D01*
X9664Y16818D01*
X9701Y16906D01*
X9713Y17000D01*
X9701Y17094D01*
X9664Y17182D01*
X9607Y17257D01*
X9532Y17314D01*
X9444Y17351D01*
X9350Y17363D01*
D02*
G37*
G36*
X20350D02*
X20256Y17351D01*
X20168Y17314D01*
X20093Y17257D01*
X20036Y17182D01*
X19999Y17094D01*
X19987Y17000D01*
X19999Y16906D01*
X20036Y16818D01*
X20093Y16743D01*
X20168Y16686D01*
X20256Y16649D01*
X20350Y16637D01*
X20444Y16649D01*
X20532Y16686D01*
X20607Y16743D01*
X20664Y16818D01*
X20701Y16906D01*
X20713Y17000D01*
X20701Y17094D01*
X20664Y17182D01*
X20607Y17257D01*
X20532Y17314D01*
X20444Y17351D01*
X20350Y17363D01*
D02*
G37*
G36*
X19350D02*
X19256Y17351D01*
X19168Y17314D01*
X19093Y17257D01*
X19036Y17182D01*
X18999Y17094D01*
X18987Y17000D01*
X18999Y16906D01*
X19036Y16818D01*
X19093Y16743D01*
X19168Y16686D01*
X19256Y16649D01*
X19350Y16637D01*
X19444Y16649D01*
X19532Y16686D01*
X19607Y16743D01*
X19664Y16818D01*
X19701Y16906D01*
X19713Y17000D01*
X19701Y17094D01*
X19664Y17182D01*
X19607Y17257D01*
X19532Y17314D01*
X19444Y17351D01*
X19350Y17363D01*
D02*
G37*
G36*
X18350D02*
X18256Y17351D01*
X18168Y17314D01*
X18093Y17257D01*
X18036Y17182D01*
X17999Y17094D01*
X17987Y17000D01*
X17999Y16906D01*
X18036Y16818D01*
X18093Y16743D01*
X18168Y16686D01*
X18256Y16649D01*
X18350Y16637D01*
X18444Y16649D01*
X18532Y16686D01*
X18607Y16743D01*
X18664Y16818D01*
X18701Y16906D01*
X18713Y17000D01*
X18701Y17094D01*
X18664Y17182D01*
X18607Y17257D01*
X18532Y17314D01*
X18444Y17351D01*
X18350Y17363D01*
D02*
G37*
G36*
X17350D02*
X17256Y17351D01*
X17168Y17314D01*
X17093Y17257D01*
X17036Y17182D01*
X16999Y17094D01*
X16987Y17000D01*
X16999Y16906D01*
X17036Y16818D01*
X17093Y16743D01*
X17168Y16686D01*
X17256Y16649D01*
X17350Y16637D01*
X17444Y16649D01*
X17532Y16686D01*
X17607Y16743D01*
X17664Y16818D01*
X17701Y16906D01*
X17713Y17000D01*
X17701Y17094D01*
X17664Y17182D01*
X17607Y17257D01*
X17532Y17314D01*
X17444Y17351D01*
X17350Y17363D01*
D02*
G37*
G36*
X16350D02*
X16256Y17351D01*
X16168Y17314D01*
X16093Y17257D01*
X16036Y17182D01*
X15999Y17094D01*
X15987Y17000D01*
X15999Y16906D01*
X16036Y16818D01*
X16093Y16743D01*
X16168Y16686D01*
X16256Y16649D01*
X16350Y16637D01*
X16444Y16649D01*
X16532Y16686D01*
X16607Y16743D01*
X16664Y16818D01*
X16701Y16906D01*
X16713Y17000D01*
X16701Y17094D01*
X16664Y17182D01*
X16607Y17257D01*
X16532Y17314D01*
X16444Y17351D01*
X16350Y17363D01*
D02*
G37*
G36*
X15350D02*
X15256Y17351D01*
X15168Y17314D01*
X15093Y17257D01*
X15036Y17182D01*
X14999Y17094D01*
X14987Y17000D01*
X14999Y16906D01*
X15036Y16818D01*
X15093Y16743D01*
X15168Y16686D01*
X15256Y16649D01*
X15350Y16637D01*
X15444Y16649D01*
X15532Y16686D01*
X15607Y16743D01*
X15664Y16818D01*
X15701Y16906D01*
X15713Y17000D01*
X15701Y17094D01*
X15664Y17182D01*
X15607Y17257D01*
X15532Y17314D01*
X15444Y17351D01*
X15350Y17363D01*
D02*
G37*
G36*
X14350D02*
X14256Y17351D01*
X14168Y17314D01*
X14093Y17257D01*
X14036Y17182D01*
X13999Y17094D01*
X13987Y17000D01*
X13999Y16906D01*
X14036Y16818D01*
X14093Y16743D01*
X14168Y16686D01*
X14256Y16649D01*
X14350Y16637D01*
X14444Y16649D01*
X14532Y16686D01*
X14607Y16743D01*
X14664Y16818D01*
X14701Y16906D01*
X14713Y17000D01*
X14701Y17094D01*
X14664Y17182D01*
X14607Y17257D01*
X14532Y17314D01*
X14444Y17351D01*
X14350Y17363D01*
D02*
G37*
G36*
X13350D02*
X13256Y17351D01*
X13168Y17314D01*
X13093Y17257D01*
X13036Y17182D01*
X12999Y17094D01*
X12987Y17000D01*
X12999Y16906D01*
X13036Y16818D01*
X13093Y16743D01*
X13168Y16686D01*
X13256Y16649D01*
X13350Y16637D01*
X13444Y16649D01*
X13532Y16686D01*
X13607Y16743D01*
X13664Y16818D01*
X13701Y16906D01*
X13713Y17000D01*
X13701Y17094D01*
X13664Y17182D01*
X13607Y17257D01*
X13532Y17314D01*
X13444Y17351D01*
X13350Y17363D01*
D02*
G37*
G36*
X12350D02*
X12256Y17351D01*
X12168Y17314D01*
X12093Y17257D01*
X12036Y17182D01*
X11999Y17094D01*
X11987Y17000D01*
X11999Y16906D01*
X12036Y16818D01*
X12093Y16743D01*
X12168Y16686D01*
X12256Y16649D01*
X12350Y16637D01*
X12444Y16649D01*
X12532Y16686D01*
X12607Y16743D01*
X12664Y16818D01*
X12701Y16906D01*
X12713Y17000D01*
X12701Y17094D01*
X12664Y17182D01*
X12607Y17257D01*
X12532Y17314D01*
X12444Y17351D01*
X12350Y17363D01*
D02*
G37*
G36*
X11350D02*
X11256Y17351D01*
X11168Y17314D01*
X11093Y17257D01*
X11036Y17182D01*
X10999Y17094D01*
X10987Y17000D01*
X10999Y16906D01*
X11036Y16818D01*
X11093Y16743D01*
X11168Y16686D01*
X11256Y16649D01*
X11350Y16637D01*
X11444Y16649D01*
X11532Y16686D01*
X11607Y16743D01*
X11664Y16818D01*
X11701Y16906D01*
X11713Y17000D01*
X11701Y17094D01*
X11664Y17182D01*
X11607Y17257D01*
X11532Y17314D01*
X11444Y17351D01*
X11350Y17363D01*
D02*
G37*
G36*
X10350D02*
X10256Y17351D01*
X10168Y17314D01*
X10093Y17257D01*
X10036Y17182D01*
X9999Y17094D01*
X9987Y17000D01*
X9999Y16906D01*
X10036Y16818D01*
X10093Y16743D01*
X10168Y16686D01*
X10256Y16649D01*
X10350Y16637D01*
X10444Y16649D01*
X10532Y16686D01*
X10607Y16743D01*
X10664Y16818D01*
X10701Y16906D01*
X10713Y17000D01*
X10701Y17094D01*
X10664Y17182D01*
X10607Y17257D01*
X10532Y17314D01*
X10444Y17351D01*
X10350Y17363D01*
D02*
G37*
G36*
X3310Y16110D02*
X2590D01*
Y15390D01*
X3310D01*
Y16110D01*
D02*
G37*
G36*
X1950Y16113D02*
X1856Y16101D01*
X1768Y16064D01*
X1693Y16007D01*
X1635Y15932D01*
X1599Y15844D01*
X1586Y15750D01*
X1599Y15656D01*
X1635Y15568D01*
X1693Y15493D01*
X1768Y15436D01*
X1856Y15399D01*
X1950Y15387D01*
X2044Y15399D01*
X2131Y15436D01*
X2206Y15493D01*
X2264Y15568D01*
X2300Y15656D01*
X2313Y15750D01*
X2300Y15844D01*
X2264Y15932D01*
X2206Y16007D01*
X2131Y16064D01*
X2044Y16101D01*
X1950Y16113D01*
D02*
G37*
G36*
X2950Y15113D02*
X2856Y15101D01*
X2768Y15064D01*
X2693Y15007D01*
X2635Y14932D01*
X2599Y14844D01*
X2587Y14750D01*
X2599Y14656D01*
X2635Y14568D01*
X2693Y14493D01*
X2768Y14436D01*
X2856Y14399D01*
X2950Y14387D01*
X3044Y14399D01*
X3131Y14436D01*
X3206Y14493D01*
X3264Y14568D01*
X3300Y14656D01*
X3313Y14750D01*
X3300Y14844D01*
X3264Y14932D01*
X3206Y15007D01*
X3131Y15064D01*
X3044Y15101D01*
X2950Y15113D01*
D02*
G37*
G36*
X1950D02*
X1856Y15101D01*
X1768Y15064D01*
X1693Y15007D01*
X1635Y14932D01*
X1599Y14844D01*
X1586Y14750D01*
X1599Y14656D01*
X1635Y14568D01*
X1693Y14493D01*
X1768Y14436D01*
X1856Y14399D01*
X1950Y14387D01*
X2044Y14399D01*
X2131Y14436D01*
X2206Y14493D01*
X2264Y14568D01*
X2300Y14656D01*
X2313Y14750D01*
X2300Y14844D01*
X2264Y14932D01*
X2206Y15007D01*
X2131Y15064D01*
X2044Y15101D01*
X1950Y15113D01*
D02*
G37*
G36*
X16839Y14578D02*
X16778Y14566D01*
X16725Y14531D01*
X16690Y14478D01*
X16678Y14417D01*
X16690Y14355D01*
X16725Y14302D01*
X16778Y14267D01*
X16839Y14255D01*
X16901Y14267D01*
X16954Y14302D01*
X16989Y14355D01*
X17001Y14417D01*
X16989Y14478D01*
X16954Y14531D01*
X16901Y14566D01*
X16839Y14578D01*
D02*
G37*
G36*
X16406D02*
X16344Y14566D01*
X16292Y14531D01*
X16257Y14478D01*
X16245Y14417D01*
X16257Y14355D01*
X16292Y14302D01*
X16344Y14267D01*
X16406Y14255D01*
X16468Y14267D01*
X16521Y14302D01*
X16556Y14355D01*
X16568Y14417D01*
X16556Y14478D01*
X16521Y14531D01*
X16468Y14566D01*
X16406Y14578D01*
D02*
G37*
G36*
X13850Y14649D02*
X13773Y14639D01*
X13701Y14609D01*
X13639Y14561D01*
X13591Y14499D01*
X13561Y14427D01*
X13551Y14350D01*
X13561Y14273D01*
X13591Y14201D01*
X13639Y14139D01*
X13701Y14091D01*
X13756Y14068D01*
X13764Y14052D01*
X13771Y14023D01*
X13770Y14011D01*
X13740Y13966D01*
X13727Y13900D01*
X13678Y13892D01*
X12893D01*
X12873Y13923D01*
X12816Y13960D01*
X12750Y13973D01*
X12684Y13960D01*
X12627Y13923D01*
X12590Y13866D01*
X12577Y13800D01*
X12590Y13734D01*
X12627Y13677D01*
X12658Y13657D01*
Y12788D01*
X12485Y12615D01*
X12465Y12585D01*
X12458Y12550D01*
Y12543D01*
X12427Y12523D01*
X12390Y12466D01*
X12377Y12400D01*
X12390Y12334D01*
X12418Y12292D01*
X12398Y12242D01*
X11630D01*
X11595Y12235D01*
X11565Y12215D01*
X10515Y11165D01*
X10495Y11135D01*
X10488Y11100D01*
Y11022D01*
X9807D01*
X9773Y11073D01*
X9716Y11110D01*
X9650Y11123D01*
X9584Y11110D01*
X9527Y11073D01*
X9490Y11016D01*
X9477Y10950D01*
X9490Y10884D01*
X9484Y10870D01*
X9434Y10860D01*
X9377Y10823D01*
X9340Y10766D01*
X9327Y10700D01*
X9340Y10634D01*
X9377Y10577D01*
X9434Y10540D01*
X9500Y10527D01*
X9566Y10540D01*
X9623Y10577D01*
X9660Y10634D01*
X9665Y10658D01*
X10640D01*
X10675Y10665D01*
X10705Y10685D01*
X11878Y11858D01*
X15850D01*
X15885Y11865D01*
X15915Y11885D01*
X16914Y12884D01*
X16950Y12877D01*
X17016Y12890D01*
X17073Y12927D01*
X17110Y12984D01*
X17123Y13050D01*
X17110Y13116D01*
X17073Y13173D01*
X17016Y13210D01*
X16950Y13223D01*
X16884Y13210D01*
X16827Y13173D01*
X16790Y13116D01*
X16777Y13050D01*
X16784Y13014D01*
X15812Y12042D01*
X14011D01*
X14000Y12090D01*
X14000Y12092D01*
X14061Y12139D01*
X14109Y12201D01*
X14139Y12273D01*
X14149Y12350D01*
X14139Y12427D01*
X14109Y12499D01*
X14061Y12561D01*
X13999Y12609D01*
X13927Y12639D01*
X13850Y12649D01*
X13773Y12639D01*
X13701Y12609D01*
X13639Y12561D01*
X13591Y12499D01*
X13561Y12427D01*
X13551Y12350D01*
X13561Y12273D01*
X13591Y12201D01*
X13639Y12139D01*
X13700Y12092D01*
X13700Y12090D01*
X13689Y12042D01*
X12790D01*
X12777Y12065D01*
X12772Y12092D01*
X13638Y12958D01*
X16007D01*
X16027Y12927D01*
X16084Y12890D01*
X16150Y12877D01*
X16216Y12890D01*
X16273Y12927D01*
X16310Y12984D01*
X16323Y13050D01*
X16310Y13116D01*
X16273Y13173D01*
X16216Y13210D01*
X16150Y13223D01*
X16084Y13210D01*
X16027Y13173D01*
X16007Y13142D01*
X13600D01*
X13565Y13135D01*
X13535Y13115D01*
X12763Y12343D01*
X12717Y12367D01*
X12723Y12400D01*
X12710Y12466D01*
X12673Y12523D01*
X12671Y12541D01*
X12815Y12685D01*
X12835Y12715D01*
X12842Y12750D01*
Y13657D01*
X12873Y13677D01*
X12893Y13708D01*
X13757D01*
X13792Y13715D01*
X13822Y13735D01*
X13829Y13743D01*
X13834Y13740D01*
X13900Y13727D01*
X13966Y13740D01*
X14023Y13777D01*
X14060Y13834D01*
X14073Y13900D01*
X14060Y13966D01*
X14023Y14023D01*
X14000Y14037D01*
X14000Y14072D01*
X14004Y14095D01*
X14061Y14139D01*
X14109Y14201D01*
X14139Y14273D01*
X14149Y14350D01*
X14139Y14427D01*
X14109Y14499D01*
X14061Y14561D01*
X13999Y14609D01*
X13927Y14639D01*
X13850Y14649D01*
D02*
G37*
G36*
X16839Y14145D02*
X16778Y14133D01*
X16725Y14098D01*
X16690Y14045D01*
X16678Y13983D01*
X16690Y13922D01*
X16725Y13869D01*
X16778Y13834D01*
X16839Y13822D01*
X16901Y13834D01*
X16954Y13869D01*
X16989Y13922D01*
X17001Y13983D01*
X16989Y14045D01*
X16954Y14098D01*
X16901Y14133D01*
X16839Y14145D01*
D02*
G37*
G36*
X16406D02*
X16344Y14133D01*
X16292Y14098D01*
X16257Y14045D01*
X16245Y13983D01*
X16257Y13922D01*
X16292Y13869D01*
X16344Y13834D01*
X16406Y13822D01*
X16468Y13834D01*
X16521Y13869D01*
X16556Y13922D01*
X16568Y13983D01*
X16556Y14045D01*
X16521Y14098D01*
X16468Y14133D01*
X16406Y14145D01*
D02*
G37*
G36*
X7100Y15473D02*
X7034Y15460D01*
X6977Y15423D01*
X6940Y15366D01*
X6927Y15300D01*
X6940Y15234D01*
X6956Y15209D01*
Y14009D01*
X6927Y13966D01*
X6914Y13900D01*
X6927Y13834D01*
X6965Y13777D01*
X7021Y13740D01*
X7088Y13727D01*
X7154Y13740D01*
X7210Y13777D01*
X7248Y13834D01*
X7261Y13900D01*
X7248Y13966D01*
X7231Y13991D01*
Y15191D01*
X7260Y15234D01*
X7273Y15300D01*
X7260Y15366D01*
X7223Y15423D01*
X7166Y15460D01*
X7100Y15473D01*
D02*
G37*
G36*
X18150Y15123D02*
X18084Y15110D01*
X18027Y15073D01*
X17990Y15016D01*
X17977Y14950D01*
X17990Y14884D01*
X18027Y14827D01*
X18084Y14790D01*
X18150Y14777D01*
X18216Y14790D01*
X18250Y14812D01*
X18943D01*
X19512Y14243D01*
Y13860D01*
X19290D01*
Y13188D01*
X18925D01*
X18871Y13228D01*
X18870Y13240D01*
X18964Y13334D01*
X19000Y13327D01*
X19066Y13340D01*
X19123Y13377D01*
X19160Y13434D01*
X19173Y13500D01*
X19160Y13566D01*
X19123Y13623D01*
X19066Y13660D01*
X19000Y13673D01*
X18934Y13660D01*
X18877Y13623D01*
X18840Y13566D01*
X18827Y13500D01*
X18834Y13464D01*
X17962Y12592D01*
X17250D01*
X17215Y12585D01*
X17185Y12565D01*
X15962Y11342D01*
X13344D01*
X13316Y11360D01*
X13250Y11373D01*
X13184Y11360D01*
X13127Y11323D01*
X13090Y11266D01*
X13077Y11200D01*
X13090Y11134D01*
X13127Y11077D01*
X13184Y11040D01*
X13250Y11027D01*
X13316Y11040D01*
X13373Y11077D01*
X13410Y11134D01*
X13415Y11158D01*
X13464D01*
X13488Y11108D01*
X13477Y11050D01*
X13490Y10984D01*
X13527Y10927D01*
X13584Y10890D01*
X13650Y10877D01*
X13716Y10890D01*
X13750Y10912D01*
X16650D01*
X16703Y10923D01*
X16747Y10953D01*
X17235Y11440D01*
X17760D01*
Y12160D01*
X17809Y12162D01*
X18175D01*
X18228Y12173D01*
X18272Y12203D01*
X18982Y12912D01*
X19550D01*
X19603Y12923D01*
X19647Y12953D01*
X19747Y13053D01*
X19747Y13053D01*
X19777Y13097D01*
X19786Y13140D01*
X20010D01*
Y13860D01*
X19788D01*
Y14300D01*
X19788Y14300D01*
X19777Y14353D01*
X19747Y14397D01*
X19097Y15047D01*
X19053Y15077D01*
X19000Y15088D01*
X18250D01*
X18216Y15110D01*
X18150Y15123D01*
D02*
G37*
G36*
X20650Y13863D02*
X20556Y13851D01*
X20468Y13814D01*
X20393Y13757D01*
X20336Y13682D01*
X20299Y13594D01*
X20287Y13500D01*
X20299Y13406D01*
X20336Y13318D01*
X20393Y13243D01*
X20468Y13186D01*
X20556Y13149D01*
X20650Y13137D01*
X20744Y13149D01*
X20832Y13186D01*
X20907Y13243D01*
X20964Y13318D01*
X21001Y13406D01*
X21013Y13500D01*
X21001Y13594D01*
X20964Y13682D01*
X20907Y13757D01*
X20832Y13814D01*
X20744Y13851D01*
X20650Y13863D01*
D02*
G37*
G36*
X19650Y12863D02*
X19556Y12851D01*
X19468Y12814D01*
X19393Y12757D01*
X19336Y12682D01*
X19299Y12594D01*
X19287Y12500D01*
X19299Y12406D01*
X19336Y12318D01*
X19393Y12243D01*
X19468Y12186D01*
X19556Y12149D01*
X19600Y12143D01*
Y12110D01*
X19607Y12075D01*
X19627Y12045D01*
X19784Y11888D01*
X19755Y11846D01*
X19744Y11851D01*
X19650Y11863D01*
X19556Y11851D01*
X19468Y11814D01*
X19393Y11757D01*
X19336Y11682D01*
X19299Y11594D01*
X19287Y11500D01*
X19299Y11406D01*
X19336Y11318D01*
X19393Y11243D01*
X19468Y11186D01*
X19556Y11149D01*
X19558Y11149D01*
Y11100D01*
X19565Y11065D01*
X19585Y11035D01*
X19715Y10905D01*
X19692Y10858D01*
X19650Y10863D01*
X19556Y10851D01*
X19468Y10814D01*
X19393Y10757D01*
X19336Y10682D01*
X19299Y10594D01*
X19287Y10500D01*
X19280Y10492D01*
X13923D01*
X13910Y10556D01*
X13873Y10612D01*
X13816Y10649D01*
X13750Y10663D01*
X13684Y10649D01*
X13627Y10612D01*
X13590Y10556D01*
X13577Y10489D01*
X13590Y10423D01*
X13627Y10367D01*
X13684Y10329D01*
X13750Y10316D01*
X13816Y10329D01*
X13822Y10333D01*
X13847Y10315D01*
X13882Y10308D01*
X19343D01*
X19393Y10243D01*
X19468Y10186D01*
X19556Y10149D01*
X19650Y10137D01*
X19744Y10149D01*
X19832Y10186D01*
X19907Y10243D01*
X19911Y10249D01*
X19958Y10233D01*
Y9767D01*
X19911Y9751D01*
X19907Y9757D01*
X19832Y9814D01*
X19744Y9851D01*
X19650Y9863D01*
X19556Y9851D01*
X19468Y9814D01*
X19393Y9757D01*
X19336Y9682D01*
X19299Y9594D01*
X19287Y9500D01*
X19299Y9406D01*
X19336Y9318D01*
X19393Y9243D01*
X19468Y9186D01*
X19556Y9149D01*
X19650Y9137D01*
X19744Y9149D01*
X19832Y9186D01*
X19907Y9243D01*
X19911Y9249D01*
X19958Y9233D01*
Y8767D01*
X19911Y8751D01*
X19907Y8757D01*
X19832Y8814D01*
X19744Y8851D01*
X19650Y8863D01*
X19556Y8851D01*
X19468Y8814D01*
X19393Y8757D01*
X19336Y8682D01*
X19299Y8594D01*
X19287Y8500D01*
X19299Y8406D01*
X19336Y8318D01*
X19347Y8303D01*
X19309Y8270D01*
X19165Y8415D01*
X19135Y8435D01*
X19100Y8442D01*
X17603D01*
X17594Y8460D01*
X17590Y8492D01*
X17657Y8543D01*
X17714Y8618D01*
X17751Y8706D01*
X17763Y8800D01*
X17751Y8894D01*
X17714Y8982D01*
X17657Y9057D01*
X17582Y9114D01*
X17494Y9151D01*
X17400Y9163D01*
X17306Y9151D01*
X17218Y9114D01*
X17143Y9057D01*
X17086Y8982D01*
X17049Y8894D01*
X17037Y8800D01*
X17049Y8706D01*
X17086Y8618D01*
X17143Y8543D01*
X17210Y8492D01*
X17206Y8460D01*
X17197Y8442D01*
X13688D01*
X12666Y9464D01*
X12673Y9500D01*
X12660Y9566D01*
X12623Y9623D01*
X12566Y9660D01*
X12500Y9673D01*
X12434Y9660D01*
X12377Y9623D01*
X12340Y9566D01*
X12327Y9500D01*
X12340Y9434D01*
X12377Y9377D01*
X12381Y9375D01*
Y9334D01*
X12377Y9323D01*
X12366Y9319D01*
X12325D01*
X12323Y9323D01*
X12266Y9360D01*
X12200Y9373D01*
X12134Y9360D01*
X12077Y9323D01*
X12040Y9266D01*
X12027Y9200D01*
X12040Y9134D01*
X12077Y9077D01*
X12134Y9040D01*
X12200Y9027D01*
X12236Y9034D01*
X13285Y7985D01*
X13315Y7965D01*
X13350Y7958D01*
X16560D01*
X17174Y7345D01*
X17203Y7325D01*
X17238Y7318D01*
X19154D01*
X19189Y7283D01*
X19195Y7274D01*
X19424Y7045D01*
X19453Y7025D01*
X19488Y7018D01*
X19860D01*
X19895Y7025D01*
X19925Y7045D01*
X20235Y7355D01*
X20255Y7385D01*
X20262Y7420D01*
Y11632D01*
X20255Y11667D01*
X20235Y11697D01*
X19809Y12122D01*
X19821Y12181D01*
X19832Y12186D01*
X19907Y12243D01*
X19964Y12318D01*
X20001Y12406D01*
X20013Y12500D01*
X20001Y12594D01*
X19964Y12682D01*
X19907Y12757D01*
X19832Y12814D01*
X19744Y12851D01*
X19650Y12863D01*
D02*
G37*
G36*
X12550Y11723D02*
X12484Y11710D01*
X12427Y11673D01*
X12390Y11616D01*
X12377Y11550D01*
X12384Y11514D01*
X11635Y10765D01*
X11615Y10735D01*
X11608Y10700D01*
Y7995D01*
X11558Y7968D01*
X11542Y7979D01*
Y10962D01*
X11964Y11384D01*
X12000Y11377D01*
X12066Y11390D01*
X12123Y11427D01*
X12160Y11484D01*
X12173Y11550D01*
X12160Y11616D01*
X12123Y11673D01*
X12066Y11710D01*
X12000Y11723D01*
X11934Y11710D01*
X11877Y11673D01*
X11840Y11616D01*
X11827Y11550D01*
X11834Y11514D01*
X11385Y11065D01*
X11365Y11035D01*
X11358Y11000D01*
Y7943D01*
X11327Y7923D01*
X11290Y7866D01*
X11277Y7800D01*
X11290Y7734D01*
X11327Y7677D01*
X11384Y7640D01*
X11450Y7627D01*
X11482Y7633D01*
X11526Y7600D01*
X11528Y7595D01*
X11540Y7534D01*
X11577Y7477D01*
X11634Y7440D01*
X11674Y7432D01*
X11699Y7379D01*
X11690Y7366D01*
X11677Y7300D01*
X11690Y7234D01*
X11727Y7177D01*
X11784Y7140D01*
X11850Y7127D01*
X11886Y7134D01*
X12285Y6735D01*
X12315Y6715D01*
X12350Y6708D01*
X17049D01*
X17049Y6706D01*
X17086Y6618D01*
X17143Y6543D01*
X17218Y6486D01*
X17306Y6449D01*
X17400Y6437D01*
X17494Y6449D01*
X17582Y6486D01*
X17657Y6543D01*
X17714Y6618D01*
X17751Y6706D01*
X17763Y6800D01*
X17751Y6894D01*
X17714Y6982D01*
X17657Y7057D01*
X17582Y7114D01*
X17494Y7151D01*
X17400Y7163D01*
X17306Y7151D01*
X17218Y7114D01*
X17143Y7057D01*
X17086Y6982D01*
X17049Y6894D01*
X17049Y6892D01*
X12388D01*
X12016Y7264D01*
X12023Y7300D01*
X12010Y7366D01*
X11973Y7423D01*
X11916Y7460D01*
X11876Y7468D01*
X11851Y7521D01*
X11860Y7534D01*
X11873Y7600D01*
X11860Y7666D01*
X11823Y7723D01*
X11792Y7743D01*
Y10662D01*
X12514Y11384D01*
X12550Y11377D01*
X12616Y11390D01*
X12673Y11427D01*
X12710Y11484D01*
X12723Y11550D01*
X12710Y11616D01*
X12673Y11673D01*
X12616Y11710D01*
X12550Y11723D01*
D02*
G37*
G36*
X17400Y10163D02*
X17306Y10151D01*
X17218Y10114D01*
X17143Y10057D01*
X17086Y9982D01*
X17049Y9894D01*
X17037Y9800D01*
X17049Y9706D01*
X17086Y9618D01*
X17143Y9543D01*
X17218Y9486D01*
X17306Y9449D01*
X17400Y9437D01*
X17494Y9449D01*
X17582Y9486D01*
X17657Y9543D01*
X17714Y9618D01*
X17751Y9706D01*
X17763Y9800D01*
X17751Y9894D01*
X17714Y9982D01*
X17657Y10057D01*
X17582Y10114D01*
X17494Y10151D01*
X17400Y10163D01*
D02*
G37*
G36*
X1750Y9541D02*
X1683Y9533D01*
X1620Y9507D01*
X1567Y9465D01*
X1526Y9412D01*
X1500Y9349D01*
X1491Y9282D01*
X1500Y9215D01*
X1526Y9153D01*
X1567Y9099D01*
X1620Y9058D01*
X1683Y9032D01*
X1750Y9023D01*
X1817Y9032D01*
X1880Y9058D01*
X1933Y9099D01*
X1974Y9153D01*
X2000Y9215D01*
X2009Y9282D01*
X2000Y9349D01*
X1974Y9412D01*
X1933Y9465D01*
X1880Y9507D01*
X1817Y9533D01*
X1750Y9541D01*
D02*
G37*
G36*
X7088Y11573D02*
X7021Y11560D01*
X6965Y11523D01*
X6927Y11466D01*
X6914Y11400D01*
X6927Y11334D01*
X6950Y11300D01*
Y9312D01*
X6960Y9260D01*
X6990Y9215D01*
X7532Y8673D01*
X7540Y8634D01*
X7577Y8577D01*
X7634Y8540D01*
X7700Y8527D01*
X7766Y8540D01*
X7823Y8577D01*
X7860Y8634D01*
X7873Y8700D01*
X7860Y8766D01*
X7823Y8823D01*
X7766Y8860D01*
X7727Y8868D01*
X7225Y9370D01*
Y11300D01*
X7248Y11334D01*
X7261Y11400D01*
X7248Y11466D01*
X7210Y11523D01*
X7154Y11560D01*
X7088Y11573D01*
D02*
G37*
G36*
X1750Y7809D02*
X1683Y7800D01*
X1620Y7774D01*
X1567Y7733D01*
X1526Y7680D01*
X1500Y7617D01*
X1491Y7550D01*
X1500Y7483D01*
X1526Y7420D01*
X1567Y7367D01*
X1620Y7326D01*
X1683Y7300D01*
X1750Y7291D01*
X1817Y7300D01*
X1880Y7326D01*
X1933Y7367D01*
X1974Y7420D01*
X2000Y7483D01*
X2009Y7550D01*
X2000Y7617D01*
X1974Y7680D01*
X1933Y7733D01*
X1880Y7774D01*
X1817Y7800D01*
X1750Y7809D01*
D02*
G37*
G36*
X7200Y7123D02*
X7134Y7110D01*
X7100Y7088D01*
X5000D01*
X5000Y7088D01*
X4947Y7077D01*
X4903Y7047D01*
X3303Y5447D01*
X3273Y5403D01*
X3262Y5350D01*
Y983D01*
X3218Y964D01*
X3143Y907D01*
X3086Y832D01*
X3049Y744D01*
X3037Y650D01*
X3049Y556D01*
X3086Y468D01*
X3143Y393D01*
X3149Y389D01*
X3133Y342D01*
X2286D01*
X2066Y562D01*
X2073Y600D01*
X2060Y666D01*
X2023Y723D01*
X1967Y760D01*
Y3274D01*
X1973Y3277D01*
X2010Y3334D01*
X2023Y3400D01*
X2010Y3466D01*
X1973Y3523D01*
X1916Y3560D01*
X1850Y3573D01*
X1784Y3560D01*
X1727Y3523D01*
X1690Y3466D01*
X1677Y3400D01*
X1690Y3334D01*
X1727Y3277D01*
X1783Y3240D01*
Y1050D01*
X1760Y1010D01*
X1040D01*
Y290D01*
X1760D01*
Y429D01*
X1810Y456D01*
X1834Y440D01*
X1900Y427D01*
X1935Y434D01*
X2184Y185D01*
X2213Y165D01*
X2248Y158D01*
X8000D01*
X8035Y165D01*
X8065Y185D01*
X8217Y337D01*
X8218Y336D01*
X8306Y299D01*
X8400Y287D01*
X8494Y299D01*
X8582Y336D01*
X8657Y393D01*
X8714Y468D01*
X8751Y556D01*
X8763Y650D01*
X8751Y744D01*
X8714Y832D01*
X8657Y907D01*
X8582Y964D01*
X8494Y1001D01*
X8400Y1013D01*
X8306Y1001D01*
X8218Y964D01*
X8143Y907D01*
X8086Y832D01*
X8049Y744D01*
X8037Y650D01*
X8049Y556D01*
X8086Y468D01*
X8087Y467D01*
X7962Y342D01*
X7667D01*
X7651Y389D01*
X7657Y393D01*
X7714Y468D01*
X7751Y556D01*
X7763Y650D01*
X7751Y744D01*
X7714Y832D01*
X7657Y907D01*
X7582Y964D01*
X7494Y1001D01*
X7400Y1013D01*
X7306Y1001D01*
X7218Y964D01*
X7143Y907D01*
X7086Y832D01*
X7049Y744D01*
X7037Y650D01*
X7049Y556D01*
X7086Y468D01*
X7143Y393D01*
X7149Y389D01*
X7133Y342D01*
X6667D01*
X6651Y389D01*
X6657Y393D01*
X6714Y468D01*
X6751Y556D01*
X6763Y650D01*
X6751Y744D01*
X6714Y832D01*
X6657Y907D01*
X6582Y964D01*
X6494Y1001D01*
X6400Y1013D01*
X6306Y1001D01*
X6218Y964D01*
X6143Y907D01*
X6086Y832D01*
X6049Y744D01*
X6037Y650D01*
X6049Y556D01*
X6086Y468D01*
X6143Y393D01*
X6149Y389D01*
X6133Y342D01*
X5667D01*
X5651Y389D01*
X5657Y393D01*
X5714Y468D01*
X5751Y556D01*
X5763Y650D01*
X5751Y744D01*
X5714Y832D01*
X5657Y907D01*
X5582Y964D01*
X5494Y1001D01*
X5400Y1013D01*
X5306Y1001D01*
X5218Y964D01*
X5143Y907D01*
X5086Y832D01*
X5049Y744D01*
X5037Y650D01*
X5049Y556D01*
X5086Y468D01*
X5143Y393D01*
X5149Y389D01*
X5133Y342D01*
X4667D01*
X4651Y389D01*
X4657Y393D01*
X4714Y468D01*
X4751Y556D01*
X4763Y650D01*
X4751Y744D01*
X4714Y832D01*
X4657Y907D01*
X4582Y964D01*
X4494Y1001D01*
X4400Y1013D01*
X4306Y1001D01*
X4218Y964D01*
X4143Y907D01*
X4086Y832D01*
X4049Y744D01*
X4037Y650D01*
X4049Y556D01*
X4086Y468D01*
X4143Y393D01*
X4149Y389D01*
X4133Y342D01*
X3667D01*
X3651Y389D01*
X3657Y393D01*
X3714Y468D01*
X3751Y556D01*
X3763Y650D01*
X3751Y744D01*
X3714Y832D01*
X3657Y907D01*
X3582Y964D01*
X3538Y983D01*
Y5293D01*
X4462Y6217D01*
X4508Y6198D01*
Y3793D01*
X4477Y3773D01*
X4440Y3716D01*
X4427Y3650D01*
X4440Y3584D01*
X4477Y3527D01*
X4534Y3490D01*
X4600Y3477D01*
X4666Y3490D01*
X4723Y3527D01*
X4760Y3584D01*
X4773Y3650D01*
X4760Y3716D01*
X4723Y3773D01*
X4692Y3793D01*
Y6262D01*
X5008Y6578D01*
X7471D01*
X7498Y6528D01*
X7490Y6516D01*
X7477Y6450D01*
X7490Y6384D01*
X7527Y6327D01*
X7584Y6290D01*
X7650Y6277D01*
X7716Y6290D01*
X7750Y6312D01*
X9595D01*
X10418Y5490D01*
X10426Y5450D01*
X10463Y5394D01*
X10520Y5356D01*
X10586Y5343D01*
X10652Y5356D01*
X10708Y5394D01*
X10746Y5450D01*
X10759Y5516D01*
X10746Y5583D01*
X10708Y5639D01*
X10652Y5676D01*
X10613Y5684D01*
X9769Y6528D01*
X9789Y6578D01*
X10537D01*
X10557Y6547D01*
X10614Y6510D01*
X10680Y6497D01*
X10746Y6510D01*
X10803Y6547D01*
X10840Y6604D01*
X10853Y6670D01*
X10840Y6736D01*
X10803Y6793D01*
X10746Y6830D01*
X10680Y6843D01*
X10614Y6830D01*
X10557Y6793D01*
X10537Y6762D01*
X7314D01*
X7299Y6812D01*
X7323Y6827D01*
X7360Y6884D01*
X7373Y6950D01*
X7360Y7016D01*
X7323Y7073D01*
X7266Y7110D01*
X7200Y7123D01*
D02*
G37*
G36*
X19650Y6863D02*
X19556Y6851D01*
X19468Y6814D01*
X19393Y6757D01*
X19336Y6682D01*
X19299Y6594D01*
X19287Y6500D01*
X19299Y6406D01*
X19336Y6318D01*
X19393Y6243D01*
X19468Y6186D01*
X19556Y6149D01*
X19650Y6137D01*
X19744Y6149D01*
X19832Y6186D01*
X19907Y6243D01*
X19964Y6318D01*
X20001Y6406D01*
X20013Y6500D01*
X20001Y6594D01*
X19964Y6682D01*
X19907Y6757D01*
X19832Y6814D01*
X19744Y6851D01*
X19650Y6863D01*
D02*
G37*
G36*
X3150Y11973D02*
X3084Y11960D01*
X3027Y11923D01*
X2990Y11866D01*
X2977Y11800D01*
X2990Y11734D01*
X2998Y11721D01*
X2973Y11684D01*
X2962Y11631D01*
Y6150D01*
X2940Y6116D01*
X2927Y6050D01*
X2940Y5984D01*
X2977Y5927D01*
X3034Y5890D01*
X3100Y5877D01*
X3166Y5890D01*
X3223Y5927D01*
X3260Y5984D01*
X3273Y6050D01*
X3260Y6116D01*
X3238Y6150D01*
Y11574D01*
X3247Y11584D01*
X3247Y11584D01*
X3277Y11628D01*
X3288Y11681D01*
X3288Y11681D01*
Y11700D01*
X3310Y11734D01*
X3323Y11800D01*
X3310Y11866D01*
X3273Y11923D01*
X3216Y11960D01*
X3150Y11973D01*
D02*
G37*
G36*
X9800Y5723D02*
X9734Y5710D01*
X9677Y5673D01*
X9640Y5616D01*
X9627Y5550D01*
X9640Y5484D01*
X9677Y5427D01*
X9734Y5390D01*
X9800Y5377D01*
X9866Y5390D01*
X9923Y5427D01*
X9960Y5484D01*
X9973Y5550D01*
X9960Y5616D01*
X9923Y5673D01*
X9866Y5710D01*
X9800Y5723D01*
D02*
G37*
G36*
X19650Y5863D02*
X19556Y5851D01*
X19468Y5814D01*
X19393Y5757D01*
X19336Y5682D01*
X19299Y5594D01*
X19287Y5500D01*
X19299Y5406D01*
X19336Y5318D01*
X19393Y5243D01*
X19468Y5186D01*
X19556Y5149D01*
X19650Y5137D01*
X19744Y5149D01*
X19832Y5186D01*
X19907Y5243D01*
X19964Y5318D01*
X20001Y5406D01*
X20013Y5500D01*
X20001Y5594D01*
X19964Y5682D01*
X19907Y5757D01*
X19832Y5814D01*
X19744Y5851D01*
X19650Y5863D01*
D02*
G37*
G36*
X17400Y6163D02*
X17306Y6151D01*
X17218Y6114D01*
X17143Y6057D01*
X17086Y5982D01*
X17049Y5894D01*
X17037Y5800D01*
X17049Y5706D01*
X17086Y5618D01*
X17143Y5543D01*
X17218Y5486D01*
X17306Y5449D01*
X17308Y5449D01*
Y5390D01*
X16945Y5026D01*
X16925Y4997D01*
X16918Y4962D01*
Y4282D01*
X16868Y4262D01*
X16765Y4365D01*
X16735Y4385D01*
X16700Y4392D01*
X13493D01*
X13473Y4423D01*
X13416Y4460D01*
X13350Y4473D01*
X13284Y4460D01*
X13227Y4423D01*
X13190Y4366D01*
X13177Y4300D01*
X13190Y4234D01*
X13227Y4177D01*
X13284Y4140D01*
X13350Y4127D01*
X13416Y4140D01*
X13473Y4177D01*
X13493Y4208D01*
X16662D01*
X16758Y4112D01*
Y1700D01*
X16765Y1665D01*
X16785Y1635D01*
X17335Y1085D01*
X17365Y1065D01*
X17384Y1061D01*
X17382Y1011D01*
X17306Y1001D01*
X17218Y964D01*
X17143Y907D01*
X17086Y832D01*
X17049Y744D01*
X17037Y650D01*
X17049Y556D01*
X17086Y468D01*
X17143Y393D01*
X17218Y336D01*
X17306Y299D01*
X17400Y287D01*
X17494Y299D01*
X17582Y336D01*
X17657Y393D01*
X17714Y468D01*
X17751Y556D01*
X17763Y650D01*
X17751Y744D01*
X17714Y832D01*
X17657Y907D01*
X17582Y964D01*
X17494Y1001D01*
X17437Y1008D01*
X17440Y1058D01*
X18227D01*
X18253Y1027D01*
X18240Y973D01*
X18218Y964D01*
X18143Y907D01*
X18086Y832D01*
X18049Y744D01*
X18037Y650D01*
X18049Y556D01*
X18086Y468D01*
X18143Y393D01*
X18218Y336D01*
X18306Y299D01*
X18400Y287D01*
X18494Y299D01*
X18582Y336D01*
X18657Y393D01*
X18714Y468D01*
X18751Y556D01*
X18763Y650D01*
X18751Y744D01*
X18714Y832D01*
X18657Y907D01*
X18582Y964D01*
X18543Y981D01*
X18537Y994D01*
X18531Y1040D01*
X18560Y1084D01*
X18573Y1150D01*
X18560Y1216D01*
X18523Y1273D01*
X18466Y1310D01*
X18400Y1323D01*
X18334Y1310D01*
X18277Y1273D01*
X18257Y1242D01*
X17438D01*
X17343Y1337D01*
X17367Y1383D01*
X17400Y1377D01*
X17466Y1390D01*
X17523Y1427D01*
X17560Y1484D01*
X17573Y1550D01*
X17560Y1616D01*
X17523Y1673D01*
X17466Y1710D01*
X17400Y1723D01*
X17364Y1716D01*
X17102Y1978D01*
Y4523D01*
X17152Y4537D01*
X17218Y4486D01*
X17306Y4449D01*
X17400Y4437D01*
X17494Y4449D01*
X17582Y4486D01*
X17657Y4543D01*
X17714Y4618D01*
X17751Y4706D01*
X17763Y4800D01*
X17751Y4894D01*
X17714Y4982D01*
X17657Y5057D01*
X17582Y5114D01*
X17494Y5151D01*
X17411Y5162D01*
X17385Y5207D01*
X17465Y5287D01*
X17485Y5316D01*
X17492Y5352D01*
Y5449D01*
X17494Y5449D01*
X17582Y5486D01*
X17657Y5543D01*
X17714Y5618D01*
X17751Y5706D01*
X17763Y5800D01*
X17751Y5894D01*
X17714Y5982D01*
X17657Y6057D01*
X17582Y6114D01*
X17494Y6151D01*
X17400Y6163D01*
D02*
G37*
G36*
X19650Y4863D02*
X19556Y4851D01*
X19468Y4814D01*
X19393Y4757D01*
X19336Y4682D01*
X19299Y4594D01*
X19287Y4500D01*
X19299Y4406D01*
X19336Y4318D01*
X19393Y4243D01*
X19468Y4186D01*
X19556Y4149D01*
X19650Y4137D01*
X19744Y4149D01*
X19832Y4186D01*
X19907Y4243D01*
X19964Y4318D01*
X20001Y4406D01*
X20013Y4500D01*
X20001Y4594D01*
X19964Y4682D01*
X19907Y4757D01*
X19832Y4814D01*
X19744Y4851D01*
X19650Y4863D01*
D02*
G37*
G36*
X8759Y5005D02*
X8641D01*
X8574Y4996D01*
X8511Y4970D01*
X8458Y4929D01*
X8417Y4875D01*
X8391Y4813D01*
X8382Y4746D01*
X8391Y4679D01*
X8417Y4616D01*
X8458Y4562D01*
X8511Y4521D01*
X8574Y4495D01*
X8641Y4487D01*
X8759D01*
X8826Y4495D01*
X8889Y4521D01*
X8942Y4562D01*
X8983Y4616D01*
X8999Y4654D01*
X9216D01*
X9258Y4612D01*
Y4293D01*
X9227Y4273D01*
X9190Y4216D01*
X9177Y4150D01*
X9190Y4084D01*
X9227Y4027D01*
X9284Y3990D01*
X9350Y3977D01*
X9416Y3990D01*
X9473Y4027D01*
X9510Y4084D01*
X9523Y4150D01*
X9510Y4216D01*
X9473Y4273D01*
X9442Y4293D01*
Y4650D01*
X9435Y4685D01*
X9415Y4715D01*
X9319Y4811D01*
X9289Y4830D01*
X9254Y4837D01*
X8999D01*
X8983Y4875D01*
X8942Y4929D01*
X8889Y4970D01*
X8826Y4996D01*
X8759Y5005D01*
D02*
G37*
G36*
Y4359D02*
X8641D01*
X8574Y4350D01*
X8511Y4324D01*
X8458Y4283D01*
X8417Y4230D01*
X8391Y4167D01*
X8382Y4100D01*
X8391Y4033D01*
X8417Y3970D01*
X8458Y3917D01*
X8511Y3876D01*
X8574Y3850D01*
X8641Y3841D01*
X8759D01*
X8826Y3850D01*
X8889Y3876D01*
X8942Y3917D01*
X8983Y3970D01*
X9009Y4033D01*
X9018Y4100D01*
X9009Y4167D01*
X8983Y4230D01*
X8942Y4283D01*
X8889Y4324D01*
X8826Y4350D01*
X8759Y4359D01*
D02*
G37*
G36*
X20400Y1013D02*
X20306Y1001D01*
X20218Y964D01*
X20143Y907D01*
X20086Y832D01*
X20049Y744D01*
X20037Y650D01*
X20049Y556D01*
X20086Y468D01*
X20143Y393D01*
X20218Y336D01*
X20306Y299D01*
X20400Y287D01*
X20494Y299D01*
X20582Y336D01*
X20657Y393D01*
X20714Y468D01*
X20751Y556D01*
X20763Y650D01*
X20751Y744D01*
X20714Y832D01*
X20657Y907D01*
X20582Y964D01*
X20494Y1001D01*
X20400Y1013D01*
D02*
G37*
G36*
X19400D02*
X19306Y1001D01*
X19218Y964D01*
X19143Y907D01*
X19086Y832D01*
X19049Y744D01*
X19037Y650D01*
X19049Y556D01*
X19086Y468D01*
X19143Y393D01*
X19218Y336D01*
X19306Y299D01*
X19400Y287D01*
X19494Y299D01*
X19582Y336D01*
X19657Y393D01*
X19714Y468D01*
X19751Y556D01*
X19763Y650D01*
X19751Y744D01*
X19714Y832D01*
X19657Y907D01*
X19582Y964D01*
X19494Y1001D01*
X19400Y1013D01*
D02*
G37*
G36*
X16400D02*
X16306Y1001D01*
X16218Y964D01*
X16143Y907D01*
X16086Y832D01*
X16049Y744D01*
X16037Y650D01*
X16049Y556D01*
X16086Y468D01*
X16143Y393D01*
X16218Y336D01*
X16306Y299D01*
X16400Y287D01*
X16494Y299D01*
X16582Y336D01*
X16657Y393D01*
X16714Y468D01*
X16751Y556D01*
X16763Y650D01*
X16751Y744D01*
X16714Y832D01*
X16657Y907D01*
X16582Y964D01*
X16494Y1001D01*
X16400Y1013D01*
D02*
G37*
G36*
X15400D02*
X15306Y1001D01*
X15218Y964D01*
X15143Y907D01*
X15086Y832D01*
X15049Y744D01*
X15037Y650D01*
X15049Y556D01*
X15086Y468D01*
X15143Y393D01*
X15218Y336D01*
X15306Y299D01*
X15400Y287D01*
X15494Y299D01*
X15582Y336D01*
X15657Y393D01*
X15714Y468D01*
X15751Y556D01*
X15763Y650D01*
X15751Y744D01*
X15714Y832D01*
X15657Y907D01*
X15582Y964D01*
X15494Y1001D01*
X15400Y1013D01*
D02*
G37*
G36*
X14400D02*
X14306Y1001D01*
X14218Y964D01*
X14143Y907D01*
X14086Y832D01*
X14049Y744D01*
X14037Y650D01*
X14049Y556D01*
X14086Y468D01*
X14143Y393D01*
X14218Y336D01*
X14306Y299D01*
X14400Y287D01*
X14494Y299D01*
X14582Y336D01*
X14657Y393D01*
X14714Y468D01*
X14751Y556D01*
X14763Y650D01*
X14751Y744D01*
X14714Y832D01*
X14657Y907D01*
X14582Y964D01*
X14494Y1001D01*
X14400Y1013D01*
D02*
G37*
G36*
X13400D02*
X13306Y1001D01*
X13218Y964D01*
X13143Y907D01*
X13086Y832D01*
X13049Y744D01*
X13037Y650D01*
X13049Y556D01*
X13086Y468D01*
X13143Y393D01*
X13218Y336D01*
X13306Y299D01*
X13400Y287D01*
X13494Y299D01*
X13582Y336D01*
X13657Y393D01*
X13714Y468D01*
X13751Y556D01*
X13763Y650D01*
X13751Y744D01*
X13714Y832D01*
X13657Y907D01*
X13582Y964D01*
X13494Y1001D01*
X13400Y1013D01*
D02*
G37*
G36*
X12400D02*
X12306Y1001D01*
X12218Y964D01*
X12143Y907D01*
X12086Y832D01*
X12049Y744D01*
X12037Y650D01*
X12049Y556D01*
X12086Y468D01*
X12143Y393D01*
X12218Y336D01*
X12306Y299D01*
X12400Y287D01*
X12494Y299D01*
X12582Y336D01*
X12657Y393D01*
X12714Y468D01*
X12751Y556D01*
X12763Y650D01*
X12751Y744D01*
X12714Y832D01*
X12657Y907D01*
X12582Y964D01*
X12494Y1001D01*
X12400Y1013D01*
D02*
G37*
G36*
X11400D02*
X11306Y1001D01*
X11218Y964D01*
X11143Y907D01*
X11086Y832D01*
X11049Y744D01*
X11037Y650D01*
X11049Y556D01*
X11086Y468D01*
X11143Y393D01*
X11218Y336D01*
X11306Y299D01*
X11400Y287D01*
X11494Y299D01*
X11582Y336D01*
X11657Y393D01*
X11714Y468D01*
X11751Y556D01*
X11763Y650D01*
X11751Y744D01*
X11714Y832D01*
X11657Y907D01*
X11582Y964D01*
X11494Y1001D01*
X11400Y1013D01*
D02*
G37*
G36*
X10400D02*
X10306Y1001D01*
X10218Y964D01*
X10143Y907D01*
X10086Y832D01*
X10049Y744D01*
X10037Y650D01*
X10049Y556D01*
X10086Y468D01*
X10143Y393D01*
X10218Y336D01*
X10306Y299D01*
X10400Y287D01*
X10494Y299D01*
X10582Y336D01*
X10657Y393D01*
X10714Y468D01*
X10751Y556D01*
X10763Y650D01*
X10751Y744D01*
X10714Y832D01*
X10657Y907D01*
X10582Y964D01*
X10494Y1001D01*
X10400Y1013D01*
D02*
G37*
G36*
X9400D02*
X9306Y1001D01*
X9218Y964D01*
X9143Y907D01*
X9086Y832D01*
X9049Y744D01*
X9037Y650D01*
X9049Y556D01*
X9086Y468D01*
X9143Y393D01*
X9218Y336D01*
X9306Y299D01*
X9400Y287D01*
X9494Y299D01*
X9582Y336D01*
X9657Y393D01*
X9714Y468D01*
X9751Y556D01*
X9763Y650D01*
X9751Y744D01*
X9714Y832D01*
X9657Y907D01*
X9582Y964D01*
X9494Y1001D01*
X9400Y1013D01*
D02*
G37*
%LPD*%
G36*
X17040Y12090D02*
Y11635D01*
X16593Y11188D01*
X16133D01*
X16114Y11234D01*
X16990Y12110D01*
X17040Y12090D01*
D02*
G37*
G36*
X19337Y7683D02*
X19336Y7682D01*
X19299Y7594D01*
X19288Y7512D01*
X19286Y7509D01*
X19258Y7492D01*
X19238Y7487D01*
X19227Y7495D01*
X19192Y7502D01*
X17677D01*
X17663Y7552D01*
X17714Y7618D01*
X17751Y7706D01*
X17763Y7800D01*
X17751Y7894D01*
X17714Y7982D01*
X17657Y8057D01*
X17651Y8061D01*
X17667Y8108D01*
X18912D01*
X19337Y7683D01*
D02*
G37*
D12*
X12500Y9200D02*
X12511D01*
X12500D02*
X12510Y9210D01*
X12200Y9189D02*
Y9200D01*
X17370Y5770D02*
X17400Y5800D01*
X2350Y17000D02*
X2377Y16973D01*
X22047Y0D02*
Y17717D01*
X-0D02*
X22047D01*
X-0D02*
X0Y0D01*
X22047D01*
D16*
X2674Y1588D02*
Y2612D01*
X272D02*
X2674D01*
X272Y1588D02*
Y2612D01*
Y1588D02*
X2674D01*
X2674Y2888D02*
Y3912D01*
X272D02*
X2674D01*
X272Y2888D02*
Y3912D01*
Y2888D02*
X2674D01*
D57*
X17400Y11800D02*
Y12200D01*
X17500Y12300D01*
X18175D01*
X18925Y13050D01*
X19650Y13150D02*
Y13500D01*
X19550Y13050D02*
X19650Y13150D01*
X18925Y13050D02*
X19550D01*
X3150Y11681D02*
Y11800D01*
X7088Y9312D02*
X7700Y8700D01*
X7088Y9312D02*
Y11400D01*
X7650Y6450D02*
X9652D01*
X10586Y5516D01*
X7094Y15294D02*
X7100Y15300D01*
X7094Y13906D02*
Y15294D01*
X7088Y13900D02*
X7094Y13906D01*
X16650Y11050D02*
X17400Y11800D01*
X13650Y11050D02*
X16650D01*
X5000Y6950D02*
X7200D01*
X3400Y5350D02*
X5000Y6950D01*
X3400Y650D02*
Y5350D01*
X19650Y13500D02*
Y14300D01*
X19000Y14950D02*
X19650Y14300D01*
X18150Y14950D02*
X19000D01*
X3100Y6050D02*
Y11631D01*
X3150Y11681D01*
D58*
X2750Y17000D02*
X3200Y16550D01*
X9335D01*
X2350Y17000D02*
X2750D01*
X9350Y4150D02*
Y4650D01*
X9254Y4746D02*
X9350Y4650D01*
X8700Y4746D02*
X9254D01*
X9500Y10700D02*
X9550Y10750D01*
X10640D01*
X11840Y11950D01*
X15850D01*
X9650Y10950D02*
X9670Y10930D01*
X10650D01*
X10580Y11100D02*
X11630Y12150D01*
X12700D01*
X10580Y11000D02*
Y11100D01*
Y11000D02*
X10650Y10930D01*
X8750Y11150D02*
Y13700D01*
X8530Y10550D02*
X12830Y14850D01*
X8261Y10111D02*
X12750Y14600D01*
X13100D01*
X7950Y10111D02*
X8261D01*
X12830Y14850D02*
X13350D01*
X7864Y10550D02*
X8530D01*
X8750Y13700D02*
X9100Y14050D01*
X9700D01*
X15850Y11950D02*
X16950Y13050D01*
X12700Y12150D02*
X13600Y13050D01*
X16150D01*
X20050Y8200D02*
Y10700D01*
X19650Y11100D02*
X20050Y10700D01*
X19650Y11100D02*
Y11500D01*
X19692Y12110D02*
X20170Y11632D01*
Y7420D02*
Y11632D01*
X19860Y7110D02*
X20170Y7420D01*
X19488Y7110D02*
X19860D01*
X19260Y7338D02*
X19488Y7110D01*
X19260Y7338D02*
Y7342D01*
X19192Y7410D02*
X19260Y7342D01*
X17238Y7410D02*
X19192D01*
X16598Y8050D02*
X17238Y7410D01*
X13350Y8050D02*
X16598D01*
X12200Y9200D02*
X13350Y8050D01*
X19900D02*
X20050Y8200D01*
X19400Y8050D02*
X19900D01*
X19100Y8350D02*
X19400Y8050D01*
X13650Y8350D02*
X19100D01*
X12500Y9500D02*
X13650Y8350D01*
X18950Y8200D02*
X19650Y7500D01*
X13500Y8200D02*
X18950D01*
X12500Y9200D02*
X13500Y8200D01*
X11850Y7300D02*
X12350Y6800D01*
X11700Y7600D02*
Y10700D01*
X11450Y7800D02*
Y11000D01*
X19650Y12500D02*
X19692Y12458D01*
Y12110D02*
Y12458D01*
X19550Y10400D02*
X19650Y10500D01*
X13882Y10400D02*
X19550D01*
X13793Y10489D02*
X13882Y10400D01*
X12350Y6800D02*
X17400D01*
X17010Y1940D02*
Y4962D01*
Y1940D02*
X17400Y1550D01*
X17010Y4962D02*
X17400Y5352D01*
Y5800D01*
X9700Y14050D02*
Y16185D01*
X9335Y16550D02*
X9700Y16185D01*
X1850Y3400D02*
X1875Y3375D01*
Y625D02*
Y3375D01*
Y625D02*
X1900Y600D01*
X8000Y250D02*
X8400Y650D01*
X2248Y250D02*
X8000D01*
X1900Y598D02*
Y600D01*
Y598D02*
X2248Y250D01*
X4970Y6670D02*
X10680D01*
X4600Y6300D02*
X4970Y6670D01*
X4600Y3650D02*
Y6300D01*
X17400Y1150D02*
X18400D01*
X16850Y1700D02*
Y4150D01*
Y1700D02*
X17400Y1150D01*
X13350Y4300D02*
X16700D01*
X16850Y4150D01*
X11700Y10700D02*
X12550Y11550D01*
X11450Y11000D02*
X12000Y11550D01*
X12550Y12400D02*
Y12550D01*
X12750Y12750D01*
Y13800D01*
X13300Y11250D02*
X16000D01*
X12750Y13800D02*
X13757D01*
X13857Y13900D01*
X13900D01*
X18000Y12500D02*
X19000Y13500D01*
X17250Y12500D02*
X18000D01*
X16000Y11250D02*
X17250Y12500D01*
X13250Y11200D02*
X13300Y11250D01*
X13750Y10489D02*
X13793D01*
D59*
X8700Y4746D02*
D03*
Y4100D02*
D03*
D60*
X1750Y7550D02*
D03*
Y9282D02*
D03*
D61*
X20400Y650D02*
D03*
X19400D02*
D03*
X18400D02*
D03*
X17400D02*
D03*
X16400D02*
D03*
X15400D02*
D03*
X14400D02*
D03*
X13400D02*
D03*
X12400D02*
D03*
X11400D02*
D03*
X10400D02*
D03*
X9400D02*
D03*
X8400D02*
D03*
X7400D02*
D03*
X6400D02*
D03*
X5400D02*
D03*
X4400D02*
D03*
X3400D02*
D03*
X2400D02*
D03*
X20650Y4500D02*
D03*
Y5500D02*
D03*
Y6500D02*
D03*
Y7500D02*
D03*
Y8500D02*
D03*
Y9500D02*
D03*
Y10500D02*
D03*
Y11500D02*
D03*
Y12500D02*
D03*
Y13500D02*
D03*
X19650Y4500D02*
D03*
Y5500D02*
D03*
Y6500D02*
D03*
Y7500D02*
D03*
Y8500D02*
D03*
Y9500D02*
D03*
Y10500D02*
D03*
Y11500D02*
D03*
Y12500D02*
D03*
X20350Y17000D02*
D03*
X19350D02*
D03*
X18350D02*
D03*
X17350D02*
D03*
X16350D02*
D03*
X15350D02*
D03*
X14350D02*
D03*
X13350D02*
D03*
X12350D02*
D03*
X11350D02*
D03*
X10350D02*
D03*
X9350D02*
D03*
X8350D02*
D03*
X7350D02*
D03*
X6350D02*
D03*
X5350D02*
D03*
X4350D02*
D03*
X3350D02*
D03*
X2350D02*
D03*
X17400Y4800D02*
D03*
Y5800D02*
D03*
Y6800D02*
D03*
Y7800D02*
D03*
Y8800D02*
D03*
Y9800D02*
D03*
Y10800D02*
D03*
X2950Y14750D02*
D03*
X1950D02*
D03*
X950D02*
D03*
Y15750D02*
D03*
X1950D02*
D03*
D62*
X1400Y650D02*
D03*
X1350Y17000D02*
D03*
X2950Y15750D02*
D03*
D63*
X19650Y13500D02*
D03*
X17400Y11800D02*
D03*
D64*
X13850Y14350D02*
D03*
Y12350D02*
D03*
D65*
X16839Y13983D02*
D03*
X16406D02*
D03*
X16839Y14417D02*
D03*
X16406D02*
D03*
D66*
X10400Y6350D02*
D03*
X9800Y5550D02*
D03*
X9050Y8750D02*
D03*
X9600D02*
D03*
X10150Y8700D02*
D03*
X4600Y2000D02*
D03*
X550Y1200D02*
D03*
X7900Y4750D02*
D03*
Y4250D02*
D03*
X11600D02*
D03*
Y3880D02*
D03*
X4700Y11351D02*
D03*
X3750Y11300D02*
D03*
X7088Y12050D02*
D03*
X6500Y12650D02*
D03*
X7088Y13250D02*
D03*
X9700Y12550D02*
D03*
X10700Y13425D02*
D03*
X3150Y11800D02*
D03*
X9350Y4150D02*
D03*
X7088Y11400D02*
D03*
X9500Y10700D02*
D03*
X9650Y10950D02*
D03*
X8750Y11150D02*
D03*
X16950Y13050D02*
D03*
X16150D02*
D03*
X13350Y14850D02*
D03*
X11850Y7300D02*
D03*
X11700Y7600D02*
D03*
X11450Y7800D02*
D03*
X12500Y9500D02*
D03*
X12500Y9200D02*
D03*
X10650Y6150D02*
D03*
X10680Y6670D02*
D03*
X10586Y5516D02*
D03*
X7650Y6450D02*
D03*
X7950Y10111D02*
D03*
X13100Y14600D02*
D03*
X12550Y12400D02*
D03*
X12000Y11550D02*
D03*
X12550D02*
D03*
X12750Y13800D02*
D03*
X7700Y8700D02*
D03*
X7088Y13900D02*
D03*
X7100Y15300D02*
D03*
X13250Y11200D02*
D03*
X13650Y11050D02*
D03*
X19000Y13500D02*
D03*
X13750Y10489D02*
D03*
X13900Y13900D02*
D03*
X7864Y10550D02*
D03*
X13350Y10450D02*
D03*
X12200Y9200D02*
D03*
X17400Y1550D02*
D03*
X9700Y14050D02*
D03*
X4600Y3650D02*
D03*
X13350Y4300D02*
D03*
X18400Y1150D02*
D03*
X14700Y7300D02*
D03*
X15700Y15800D02*
D03*
X15550Y13700D02*
D03*
X7200Y6950D02*
D03*
X1900Y600D02*
D03*
X18150Y14950D02*
D03*
X15550Y14700D02*
D03*
X18150Y14450D02*
D03*
X1850Y3400D02*
D03*
X3100Y6050D02*
D03*
M02*
