M48
;Layer_Color=9474304
;FILE_FORMAT=2:4
INCH,LZ
;TYPE=PLATED
T1F00S00C0.0079
T2F00S00C0.0120
T3F00S00C0.0236
T4F00S00C0.0300
T5F00S00C0.0315
T6F00S00C0.0394
%
T01
X016406Y013983
Y014417
X016839
Y013983
T02
X0079Y00425
Y00475
X00765Y00645
X0072Y00695
X0077Y0087
X00905Y00875
X0096
X01015Y0087
X01145Y0078
X0117Y0076
X01185Y0073
X01068Y00667
X01065Y00615
X0104Y00635
X010586Y005516
X0098Y00555
X00935Y00415
X0116Y00425
Y00388
X01335Y0043
X0147Y0073
X0125Y0092
X0122Y0092
X0125Y0095
X01335Y01045
X01375Y010489
X007864Y01055
X00795Y010111
X0174Y00155
X0184Y00115
X0046Y002
Y00365
X00185Y0034
X0019Y0006
X00055Y0012
X0031Y00605
X00315Y0118
X00375Y0113
X0047Y011351
X007088Y0114
Y01205
X0065Y01265
X007088Y01325
Y0139
X0071Y0153
X0097Y01405
Y01255
X00965Y01095
X0095Y0107
X00875Y01115
X012Y01155
X01255
Y0124
X01275Y0138
X0131Y0146
X01335Y01485
X0139Y0139
X01555Y0137
Y0147
X0157Y0158
X01615Y01305
X01695
X019Y0135
X01815Y01445
Y01495
X01365Y01105
X01325Y0112
X0107Y013425
T03
X0087Y0041
Y004746
T04
X0064Y00065
X0074
X0084
X0094
X0104
X0114
X0124
X0134
X0144
X0154
X0164
X0174
X0184
X0194
X0204
X02065Y0045
Y0055
Y0065
Y0075
Y0085
Y0095
Y0105
X01965
Y0095
Y0085
Y0075
Y0065
Y0055
Y0045
X0174Y0048
Y0058
Y0068
Y0078
Y0088
Y0098
X0054Y00065
X0044
X0034
X0024
X0014
X00095Y01475
X00195
X00295
Y01575
X00195
X00095
X00135Y017
X00235
X00335
X00435
X00535
X00635
X00735
X00835
X00935
X01035
X01135
X01235
X01335
X01435
X01535
X01635
X01735
X01835
X01935
X02035
X02065Y0135
Y0125
Y0115
X01965
Y0125
Y0135
X0174Y0118
Y0108
T05
X01385Y01235
Y01435
T06
X00175Y00755
Y009282
M30
