G04*
G04 #@! TF.GenerationSoftware,Altium Limited,Altium Designer,20.0.2 (26)*
G04*
G04 Layer_Color=8388736*
%FSLAX24Y24*%
%MOIN*%
G70*
G01*
G75*
%ADD12C,0.0100*%
%ADD16C,0.0010*%
%ADD33R,0.0474X0.0580*%
%ADD34R,0.0600X0.0640*%
G04:AMPARAMS|DCode=35|XSize=19.8mil|YSize=76.9mil|CornerRadius=0mil|HoleSize=0mil|Usage=FLASHONLY|Rotation=45.000|XOffset=0mil|YOffset=0mil|HoleType=Round|Shape=Round|*
%AMOVALD35*
21,1,0.0571,0.0198,0.0000,0.0000,135.0*
1,1,0.0198,0.0202,-0.0202*
1,1,0.0198,-0.0202,0.0202*
%
%ADD35OVALD35*%

G04:AMPARAMS|DCode=36|XSize=19.8mil|YSize=76.9mil|CornerRadius=0mil|HoleSize=0mil|Usage=FLASHONLY|Rotation=135.000|XOffset=0mil|YOffset=0mil|HoleType=Round|Shape=Round|*
%AMOVALD36*
21,1,0.0571,0.0198,0.0000,0.0000,225.0*
1,1,0.0198,0.0202,0.0202*
1,1,0.0198,-0.0202,-0.0202*
%
%ADD36OVALD36*%

%ADD37R,0.0580X0.0474*%
%ADD38R,0.0669X0.0945*%
%ADD39R,0.0552X0.0946*%
%ADD40R,0.0529X0.0580*%
%ADD41O,0.1261X0.0277*%
%ADD42R,0.0907X0.1104*%
%ADD43O,0.1261X0.0277*%
%ADD44R,0.0982X0.0982*%
%ADD45O,0.0651X0.0316*%
%ADD46R,0.0580X0.0529*%
%ADD47R,0.0907X0.1379*%
%ADD48R,0.0907X0.0434*%
%ADD49O,0.0592X0.0474*%
%ADD50C,0.0474*%
%ADD51C,0.0680*%
%ADD52R,0.0680X0.0680*%
%ADD53R,0.0680X0.0680*%
%ADD54C,0.0552*%
%ADD55C,0.0277*%
D12*
X22047Y0D02*
Y17717D01*
X-0D02*
X22047D01*
X-0D02*
X0Y0D01*
X22047D01*
D16*
X2674Y1588D02*
Y2612D01*
X272D02*
X2674D01*
X272Y1588D02*
Y2612D01*
Y1588D02*
X2674D01*
X2674Y2888D02*
Y3912D01*
X272D02*
X2674D01*
X272Y2888D02*
Y3912D01*
Y2888D02*
X2674D01*
D33*
X2700Y5100D02*
D03*
X3350D02*
D03*
X14500Y3300D02*
D03*
X13850D02*
D03*
X12850Y4300D02*
D03*
X12200D02*
D03*
X7950Y5600D02*
D03*
X8600D02*
D03*
X7950Y3200D02*
D03*
X8600D02*
D03*
X6550Y7415D02*
D03*
X7200D02*
D03*
X6550Y6450D02*
D03*
X7200D02*
D03*
X4967Y8380D02*
D03*
X5617D02*
D03*
X4967Y6450D02*
D03*
X5617D02*
D03*
X4967Y7415D02*
D03*
X5617D02*
D03*
X16900Y15800D02*
D03*
X16250D02*
D03*
X10700Y12950D02*
D03*
X11350D02*
D03*
X10700Y13900D02*
D03*
X11350D02*
D03*
D34*
X1490Y5050D02*
D03*
X650D02*
D03*
X12060Y3300D02*
D03*
X12900D02*
D03*
D35*
X10942Y8815D02*
D03*
X11081Y8954D02*
D03*
X11777Y9650D02*
D03*
X12195Y10068D02*
D03*
X11360Y9232D02*
D03*
X11499Y9372D02*
D03*
X12932Y6268D02*
D03*
X13072Y6407D02*
D03*
X13211Y6546D02*
D03*
X13350Y6685D02*
D03*
X13489Y6824D02*
D03*
X13628Y6964D02*
D03*
X13768Y7103D02*
D03*
X13907Y7242D02*
D03*
X14046Y7381D02*
D03*
X14185Y7520D02*
D03*
X14324Y7660D02*
D03*
X14464Y7799D02*
D03*
X12055Y9928D02*
D03*
X11916Y9789D02*
D03*
X11638Y9511D02*
D03*
X11220Y9093D02*
D03*
X10803Y8676D02*
D03*
X10664Y8536D02*
D03*
D36*
X12195Y6268D02*
D03*
X13489Y9511D02*
D03*
X13350Y9650D02*
D03*
X12055Y6407D02*
D03*
X14464Y8536D02*
D03*
X14324Y8676D02*
D03*
X14185Y8815D02*
D03*
X14046Y8954D02*
D03*
X13907Y9093D02*
D03*
X10664Y7799D02*
D03*
X10803Y7660D02*
D03*
X10942Y7520D02*
D03*
X11081Y7381D02*
D03*
X11220Y7242D02*
D03*
X11360Y7103D02*
D03*
X11499Y6964D02*
D03*
X11638Y6824D02*
D03*
X11777Y6685D02*
D03*
X11916Y6546D02*
D03*
X13768Y9232D02*
D03*
X13628Y9372D02*
D03*
X13211Y9789D02*
D03*
X13072Y9928D02*
D03*
X12932Y10068D02*
D03*
D37*
X4600Y2500D02*
D03*
Y3150D02*
D03*
X3500Y2500D02*
D03*
Y3150D02*
D03*
X9700Y13700D02*
D03*
Y13050D02*
D03*
X12250Y13750D02*
D03*
Y13100D02*
D03*
X5200Y12050D02*
D03*
Y11400D02*
D03*
X6500D02*
D03*
Y12050D02*
D03*
X7675Y11400D02*
D03*
Y12050D02*
D03*
X5250Y13250D02*
D03*
Y13900D02*
D03*
X7675D02*
D03*
Y13250D02*
D03*
X6500Y13900D02*
D03*
Y13250D02*
D03*
D38*
X550Y2100D02*
D03*
X2400D02*
D03*
X550Y3400D02*
D03*
X2400D02*
D03*
D39*
X5400Y4445D02*
D03*
D40*
X5750Y9350D02*
D03*
X5002D02*
D03*
D41*
X3045Y8721D02*
D03*
Y7811D02*
D03*
X3049Y8416D02*
D03*
Y9026D02*
D03*
D42*
X599Y10026D02*
D03*
X2799Y6826D02*
D03*
X599D02*
D03*
X2799Y10026D02*
D03*
D43*
X3045Y8111D02*
D03*
D44*
X16623Y14200D02*
D03*
D45*
X17696Y13450D02*
D03*
Y13950D02*
D03*
Y14450D02*
D03*
Y14950D02*
D03*
X15550Y13450D02*
D03*
Y13950D02*
D03*
Y14450D02*
D03*
Y14950D02*
D03*
D46*
X4200Y11302D02*
D03*
Y12050D02*
D03*
X4300Y13898D02*
D03*
Y13150D02*
D03*
D47*
X853Y12200D02*
D03*
D48*
X3176Y13106D02*
D03*
Y12200D02*
D03*
Y11294D02*
D03*
D49*
X8700Y4746D02*
D03*
Y4100D02*
D03*
D50*
X1750Y7550D02*
D03*
Y9282D02*
D03*
D51*
X20400Y650D02*
D03*
X19400D02*
D03*
X18400D02*
D03*
X17400D02*
D03*
X16400D02*
D03*
X15400D02*
D03*
X14400D02*
D03*
X13400D02*
D03*
X12400D02*
D03*
X11400D02*
D03*
X10400D02*
D03*
X9400D02*
D03*
X8400D02*
D03*
X7400D02*
D03*
X6400D02*
D03*
X5400D02*
D03*
X4400D02*
D03*
X3400D02*
D03*
X2400D02*
D03*
X20650Y4500D02*
D03*
Y5500D02*
D03*
Y6500D02*
D03*
Y7500D02*
D03*
Y8500D02*
D03*
Y9500D02*
D03*
Y10500D02*
D03*
Y11500D02*
D03*
Y12500D02*
D03*
Y13500D02*
D03*
X19650Y4500D02*
D03*
Y5500D02*
D03*
Y6500D02*
D03*
Y7500D02*
D03*
Y8500D02*
D03*
Y9500D02*
D03*
Y10500D02*
D03*
Y11500D02*
D03*
Y12500D02*
D03*
X20350Y17000D02*
D03*
X19350D02*
D03*
X18350D02*
D03*
X17350D02*
D03*
X16350D02*
D03*
X15350D02*
D03*
X14350D02*
D03*
X13350D02*
D03*
X12350D02*
D03*
X11350D02*
D03*
X10350D02*
D03*
X9350D02*
D03*
X8350D02*
D03*
X7350D02*
D03*
X6350D02*
D03*
X5350D02*
D03*
X4350D02*
D03*
X3350D02*
D03*
X2350D02*
D03*
X17400Y4800D02*
D03*
Y5800D02*
D03*
Y6800D02*
D03*
Y7800D02*
D03*
Y8800D02*
D03*
Y9800D02*
D03*
Y10800D02*
D03*
X2950Y14750D02*
D03*
X1950D02*
D03*
X950D02*
D03*
Y15750D02*
D03*
X1950D02*
D03*
D52*
X1400Y650D02*
D03*
X1350Y17000D02*
D03*
X2950Y15750D02*
D03*
D53*
X19650Y13500D02*
D03*
X17400Y11800D02*
D03*
D54*
X13850Y14350D02*
D03*
Y12350D02*
D03*
D55*
X16839Y13983D02*
D03*
X16406D02*
D03*
X16839Y14417D02*
D03*
X16406D02*
D03*
M02*
