G04*
G04 #@! TF.GenerationSoftware,Altium Limited,Altium Designer,20.0.2 (26)*
G04*
G04 Layer_Color=16711935*
%FSLAX24Y24*%
%MOIN*%
G70*
G01*
G75*
%ADD12C,0.0100*%
%ADD16C,0.0010*%
%ADD49O,0.0592X0.0474*%
%ADD50C,0.0474*%
%ADD51C,0.0680*%
%ADD52R,0.0680X0.0680*%
%ADD53R,0.0680X0.0680*%
%ADD54C,0.0552*%
%ADD55C,0.0277*%
D12*
X22047Y0D02*
Y17717D01*
X-0D02*
X22047D01*
X-0D02*
X0Y0D01*
X22047D01*
D16*
X2674Y1588D02*
Y2612D01*
X272D02*
X2674D01*
X272Y1588D02*
Y2612D01*
Y1588D02*
X2674D01*
X2674Y2888D02*
Y3912D01*
X272D02*
X2674D01*
X272Y2888D02*
Y3912D01*
Y2888D02*
X2674D01*
D49*
X8700Y4746D02*
D03*
Y4100D02*
D03*
D50*
X1750Y7550D02*
D03*
Y9282D02*
D03*
D51*
X20400Y650D02*
D03*
X19400D02*
D03*
X18400D02*
D03*
X17400D02*
D03*
X16400D02*
D03*
X15400D02*
D03*
X14400D02*
D03*
X13400D02*
D03*
X12400D02*
D03*
X11400D02*
D03*
X10400D02*
D03*
X9400D02*
D03*
X8400D02*
D03*
X7400D02*
D03*
X6400D02*
D03*
X5400D02*
D03*
X4400D02*
D03*
X3400D02*
D03*
X2400D02*
D03*
X20650Y4500D02*
D03*
Y5500D02*
D03*
Y6500D02*
D03*
Y7500D02*
D03*
Y8500D02*
D03*
Y9500D02*
D03*
Y10500D02*
D03*
Y11500D02*
D03*
Y12500D02*
D03*
Y13500D02*
D03*
X19650Y4500D02*
D03*
Y5500D02*
D03*
Y6500D02*
D03*
Y7500D02*
D03*
Y8500D02*
D03*
Y9500D02*
D03*
Y10500D02*
D03*
Y11500D02*
D03*
Y12500D02*
D03*
X20350Y17000D02*
D03*
X19350D02*
D03*
X18350D02*
D03*
X17350D02*
D03*
X16350D02*
D03*
X15350D02*
D03*
X14350D02*
D03*
X13350D02*
D03*
X12350D02*
D03*
X11350D02*
D03*
X10350D02*
D03*
X9350D02*
D03*
X8350D02*
D03*
X7350D02*
D03*
X6350D02*
D03*
X5350D02*
D03*
X4350D02*
D03*
X3350D02*
D03*
X2350D02*
D03*
X17400Y4800D02*
D03*
Y5800D02*
D03*
Y6800D02*
D03*
Y7800D02*
D03*
Y8800D02*
D03*
Y9800D02*
D03*
Y10800D02*
D03*
X2950Y14750D02*
D03*
X1950D02*
D03*
X950D02*
D03*
Y15750D02*
D03*
X1950D02*
D03*
D52*
X1400Y650D02*
D03*
X1350Y17000D02*
D03*
X2950Y15750D02*
D03*
D53*
X19650Y13500D02*
D03*
X17400Y11800D02*
D03*
D54*
X13850Y14350D02*
D03*
Y12350D02*
D03*
D55*
X16839Y13983D02*
D03*
X16406D02*
D03*
X16839Y14417D02*
D03*
X16406D02*
D03*
M02*
