G04*
G04 #@! TF.GenerationSoftware,Altium Limited,Altium Designer,20.0.2 (26)*
G04*
G04 Layer_Color=128*
%FSLAX24Y24*%
%MOIN*%
G70*
G01*
G75*
%ADD12C,0.0100*%
%ADD16C,0.0010*%
%ADD67C,0.0020*%
D12*
X22047Y0D02*
Y17717D01*
X-0D02*
X22047D01*
X-0D02*
X0Y0D01*
X22047D01*
D16*
X2674Y1588D02*
Y2612D01*
X272D02*
X2674D01*
X272Y1588D02*
Y2612D01*
Y1588D02*
X2674D01*
X2674Y2888D02*
Y3912D01*
X272D02*
X2674D01*
X272Y2888D02*
Y3912D01*
Y2888D02*
X2674D01*
D67*
X8582Y4746D02*
X8818D01*
X8700Y4628D02*
Y4864D01*
X8582Y4100D02*
X8818D01*
X8700Y3982D02*
Y4218D01*
X1553Y7550D02*
X1947D01*
X1750Y7353D02*
Y7747D01*
X1553Y9282D02*
X1947D01*
X1750Y9085D02*
Y9479D01*
X20250Y650D02*
X20550D01*
X20400Y500D02*
Y800D01*
X19250Y650D02*
X19550D01*
X19400Y500D02*
Y800D01*
X18250Y650D02*
X18550D01*
X18400Y500D02*
Y800D01*
X17250Y650D02*
X17550D01*
X17400Y500D02*
Y800D01*
X16250Y650D02*
X16550D01*
X16400Y500D02*
Y800D01*
X15250Y650D02*
X15550D01*
X15400Y500D02*
Y800D01*
X14250Y650D02*
X14550D01*
X14400Y500D02*
Y800D01*
X13250Y650D02*
X13550D01*
X13400Y500D02*
Y800D01*
X12250Y650D02*
X12550D01*
X12400Y500D02*
Y800D01*
X11250Y650D02*
X11550D01*
X11400Y500D02*
Y800D01*
X10250Y650D02*
X10550D01*
X10400Y500D02*
Y800D01*
X9250Y650D02*
X9550D01*
X9400Y500D02*
Y800D01*
X8250Y650D02*
X8550D01*
X8400Y500D02*
Y800D01*
X7250Y650D02*
X7550D01*
X7400Y500D02*
Y800D01*
X6250Y650D02*
X6550D01*
X6400Y500D02*
Y800D01*
X5250Y650D02*
X5550D01*
X5400Y500D02*
Y800D01*
X4250Y650D02*
X4550D01*
X4400Y500D02*
Y800D01*
X3250Y650D02*
X3550D01*
X3400Y500D02*
Y800D01*
X2250Y650D02*
X2550D01*
X2400Y500D02*
Y800D01*
X1250Y650D02*
X1550D01*
X1400Y500D02*
Y800D01*
X20500Y4500D02*
X20800D01*
X20650Y4350D02*
Y4650D01*
X20500Y5500D02*
X20800D01*
X20650Y5350D02*
Y5650D01*
X20500Y6500D02*
X20800D01*
X20650Y6350D02*
Y6650D01*
X20500Y7500D02*
X20800D01*
X20650Y7350D02*
Y7650D01*
X20500Y8500D02*
X20800D01*
X20650Y8350D02*
Y8650D01*
X20500Y9500D02*
X20800D01*
X20650Y9350D02*
Y9650D01*
X20500Y10500D02*
X20800D01*
X20650Y10350D02*
Y10650D01*
X20500Y11500D02*
X20800D01*
X20650Y11350D02*
Y11650D01*
X20500Y12500D02*
X20800D01*
X20650Y12350D02*
Y12650D01*
X20500Y13500D02*
X20800D01*
X20650Y13350D02*
Y13650D01*
X19500Y4500D02*
X19800D01*
X19650Y4350D02*
Y4650D01*
X19500Y5500D02*
X19800D01*
X19650Y5350D02*
Y5650D01*
X19500Y6500D02*
X19800D01*
X19650Y6350D02*
Y6650D01*
X19500Y7500D02*
X19800D01*
X19650Y7350D02*
Y7650D01*
X19500Y8500D02*
X19800D01*
X19650Y8350D02*
Y8650D01*
X19500Y9500D02*
X19800D01*
X19650Y9350D02*
Y9650D01*
X19500Y10500D02*
X19800D01*
X19650Y10350D02*
Y10650D01*
X19500Y11500D02*
X19800D01*
X19650Y11350D02*
Y11650D01*
X19500Y12500D02*
X19800D01*
X19650Y12350D02*
Y12650D01*
X19500Y13500D02*
X19800D01*
X19650Y13350D02*
Y13650D01*
X20200Y17000D02*
X20500D01*
X20350Y16850D02*
Y17150D01*
X19200Y17000D02*
X19500D01*
X19350Y16850D02*
Y17150D01*
X18200Y17000D02*
X18500D01*
X18350Y16850D02*
Y17150D01*
X17200Y17000D02*
X17500D01*
X17350Y16850D02*
Y17150D01*
X16200Y17000D02*
X16500D01*
X16350Y16850D02*
Y17150D01*
X15200Y17000D02*
X15500D01*
X15350Y16850D02*
Y17150D01*
X14200Y17000D02*
X14500D01*
X14350Y16850D02*
Y17150D01*
X13200Y17000D02*
X13500D01*
X13350Y16850D02*
Y17150D01*
X12200Y17000D02*
X12500D01*
X12350Y16850D02*
Y17150D01*
X11200Y17000D02*
X11500D01*
X11350Y16850D02*
Y17150D01*
X10200Y17000D02*
X10500D01*
X10350Y16850D02*
Y17150D01*
X9200Y17000D02*
X9500D01*
X9350Y16850D02*
Y17150D01*
X8200Y17000D02*
X8500D01*
X8350Y16850D02*
Y17150D01*
X7200Y17000D02*
X7500D01*
X7350Y16850D02*
Y17150D01*
X6200Y17000D02*
X6500D01*
X6350Y16850D02*
Y17150D01*
X5200Y17000D02*
X5500D01*
X5350Y16850D02*
Y17150D01*
X4200Y17000D02*
X4500D01*
X4350Y16850D02*
Y17150D01*
X3200Y17000D02*
X3500D01*
X3350Y16850D02*
Y17150D01*
X2200Y17000D02*
X2500D01*
X2350Y16850D02*
Y17150D01*
X1200Y17000D02*
X1500D01*
X1350Y16850D02*
Y17150D01*
X17250Y4800D02*
X17550D01*
X17400Y4650D02*
Y4950D01*
X17250Y5800D02*
X17550D01*
X17400Y5650D02*
Y5950D01*
X17250Y6800D02*
X17550D01*
X17400Y6650D02*
Y6950D01*
X17250Y7800D02*
X17550D01*
X17400Y7650D02*
Y7950D01*
X17250Y8800D02*
X17550D01*
X17400Y8650D02*
Y8950D01*
X17250Y9800D02*
X17550D01*
X17400Y9650D02*
Y9950D01*
X17250Y10800D02*
X17550D01*
X17400Y10650D02*
Y10950D01*
X17250Y11800D02*
X17550D01*
X17400Y11650D02*
Y11950D01*
X13693Y14350D02*
X14007D01*
X13850Y14193D02*
Y14507D01*
X13693Y12350D02*
X14007D01*
X13850Y12193D02*
Y12507D01*
X2800Y14750D02*
X3100D01*
X2950Y14600D02*
Y14900D01*
X1800Y14750D02*
X2100D01*
X1950Y14600D02*
Y14900D01*
X800Y14750D02*
X1100D01*
X950Y14600D02*
Y14900D01*
X800Y15750D02*
X1100D01*
X950Y15600D02*
Y15900D01*
X1800Y15750D02*
X2100D01*
X1950Y15600D02*
Y15900D01*
X2800Y15750D02*
X3100D01*
X2950Y15600D02*
Y15900D01*
X16800Y13983D02*
X16879D01*
X16839Y13944D02*
Y14023D01*
X16367Y13983D02*
X16446D01*
X16406Y13944D02*
Y14023D01*
X16800Y14417D02*
X16879D01*
X16839Y14377D02*
Y14456D01*
X16367Y14417D02*
X16446D01*
X16406Y14377D02*
Y14456D01*
X10340Y6350D02*
X10460D01*
X10400Y6290D02*
Y6410D01*
X9740Y5550D02*
X9860D01*
X9800Y5490D02*
Y5610D01*
X8990Y8750D02*
X9110D01*
X9050Y8690D02*
Y8810D01*
X9540Y8750D02*
X9660D01*
X9600Y8690D02*
Y8810D01*
X10090Y8700D02*
X10210D01*
X10150Y8640D02*
Y8760D01*
X4540Y2000D02*
X4660D01*
X4600Y1940D02*
Y2060D01*
X490Y1200D02*
X610D01*
X550Y1140D02*
Y1260D01*
X7840Y4750D02*
X7960D01*
X7900Y4690D02*
Y4810D01*
X7840Y4250D02*
X7960D01*
X7900Y4190D02*
Y4310D01*
X11540Y4250D02*
X11660D01*
X11600Y4190D02*
Y4310D01*
X11540Y3880D02*
X11660D01*
X11600Y3820D02*
Y3940D01*
X4640Y11351D02*
X4760D01*
X4700Y11291D02*
Y11411D01*
X3690Y11300D02*
X3810D01*
X3750Y11240D02*
Y11360D01*
X7028Y12050D02*
X7147D01*
X7088Y11990D02*
Y12110D01*
X6440Y12650D02*
X6560D01*
X6500Y12590D02*
Y12710D01*
X7028Y13250D02*
X7147D01*
X7088Y13190D02*
Y13310D01*
X9640Y12550D02*
X9760D01*
X9700Y12490D02*
Y12610D01*
X10640Y13425D02*
X10760D01*
X10700Y13365D02*
Y13485D01*
X3090Y11800D02*
X3210D01*
X3150Y11740D02*
Y11860D01*
X9290Y4150D02*
X9410D01*
X9350Y4090D02*
Y4210D01*
X7028Y11400D02*
X7147D01*
X7088Y11340D02*
Y11460D01*
X9440Y10700D02*
X9560D01*
X9500Y10640D02*
Y10760D01*
X9590Y10950D02*
X9710D01*
X9650Y10890D02*
Y11010D01*
X8690Y11150D02*
X8810D01*
X8750Y11090D02*
Y11210D01*
X16890Y13050D02*
X17010D01*
X16950Y12990D02*
Y13110D01*
X16090Y13050D02*
X16210D01*
X16150Y12990D02*
Y13110D01*
X13290Y14850D02*
X13410D01*
X13350Y14790D02*
Y14910D01*
X11790Y7300D02*
X11910D01*
X11850Y7240D02*
Y7360D01*
X11640Y7600D02*
X11760D01*
X11700Y7540D02*
Y7660D01*
X11390Y7800D02*
X11510D01*
X11450Y7740D02*
Y7860D01*
X12440Y9500D02*
X12560D01*
X12500Y9440D02*
Y9560D01*
X12440Y9200D02*
X12560D01*
X12500Y9140D02*
Y9260D01*
X10590Y6150D02*
X10710D01*
X10650Y6090D02*
Y6210D01*
X10620Y6670D02*
X10740D01*
X10680Y6610D02*
Y6730D01*
X10526Y5516D02*
X10646D01*
X10586Y5456D02*
Y5576D01*
X7590Y6450D02*
X7710D01*
X7650Y6390D02*
Y6510D01*
X7890Y10111D02*
X8010D01*
X7950Y10051D02*
Y10171D01*
X13040Y14600D02*
X13160D01*
X13100Y14540D02*
Y14660D01*
X12490Y12400D02*
X12610D01*
X12550Y12340D02*
Y12460D01*
X11940Y11550D02*
X12060D01*
X12000Y11490D02*
Y11610D01*
X12490Y11550D02*
X12610D01*
X12550Y11490D02*
Y11610D01*
X12690Y13800D02*
X12810D01*
X12750Y13740D02*
Y13860D01*
X7640Y8700D02*
X7760D01*
X7700Y8640D02*
Y8760D01*
X7028Y13900D02*
X7147D01*
X7088Y13840D02*
Y13960D01*
X7040Y15300D02*
X7160D01*
X7100Y15240D02*
Y15360D01*
X13190Y11200D02*
X13310D01*
X13250Y11140D02*
Y11260D01*
X13590Y11050D02*
X13710D01*
X13650Y10990D02*
Y11110D01*
X18940Y13500D02*
X19060D01*
X19000Y13440D02*
Y13560D01*
X13690Y10489D02*
X13810D01*
X13750Y10429D02*
Y10549D01*
X13840Y13900D02*
X13960D01*
X13900Y13840D02*
Y13960D01*
X7804Y10550D02*
X7924D01*
X7864Y10490D02*
Y10610D01*
X13290Y10450D02*
X13410D01*
X13350Y10390D02*
Y10510D01*
X12140Y9200D02*
X12260D01*
X12200Y9140D02*
Y9260D01*
X17340Y1550D02*
X17460D01*
X17400Y1490D02*
Y1610D01*
X9640Y14050D02*
X9760D01*
X9700Y13990D02*
Y14110D01*
X4540Y3650D02*
X4660D01*
X4600Y3590D02*
Y3710D01*
X13290Y4300D02*
X13410D01*
X13350Y4240D02*
Y4360D01*
X18340Y1150D02*
X18460D01*
X18400Y1090D02*
Y1210D01*
X14640Y7300D02*
X14760D01*
X14700Y7240D02*
Y7360D01*
X15640Y15800D02*
X15760D01*
X15700Y15740D02*
Y15860D01*
X15490Y13700D02*
X15610D01*
X15550Y13640D02*
Y13760D01*
X7140Y6950D02*
X7260D01*
X7200Y6890D02*
Y7010D01*
X1840Y600D02*
X1960D01*
X1900Y540D02*
Y660D01*
X18090Y14950D02*
X18210D01*
X18150Y14890D02*
Y15010D01*
X15490Y14700D02*
X15610D01*
X15550Y14640D02*
Y14760D01*
X18090Y14450D02*
X18210D01*
X18150Y14390D02*
Y14510D01*
X1790Y3400D02*
X1910D01*
X1850Y3340D02*
Y3460D01*
X3040Y6050D02*
X3160D01*
X3100Y5990D02*
Y6110D01*
M02*
